G04 #@! TF.GenerationSoftware,KiCad,Pcbnew,(5.0.2)-1*
G04 #@! TF.CreationDate,2019-04-14T17:31:43+02:00*
G04 #@! TF.ProjectId,APRS-Tracker_ArduinoProMini,41505253-2d54-4726-9163-6b65725f4172,rev?*
G04 #@! TF.SameCoordinates,Original*
G04 #@! TF.FileFunction,Soldermask,Bot*
G04 #@! TF.FilePolarity,Negative*
%FSLAX46Y46*%
G04 Gerber Fmt 4.6, Leading zero omitted, Abs format (unit mm)*
G04 Created by KiCad (PCBNEW (5.0.2)-1) date 14.04.2019 17:31:43*
%MOMM*%
%LPD*%
G01*
G04 APERTURE LIST*
%ADD10C,0.100000*%
G04 APERTURE END LIST*
D10*
G36*
X88566000Y-157678000D02*
X85766000Y-157678000D01*
X85766000Y-154878000D01*
X88566000Y-154878000D01*
X88566000Y-157678000D01*
X88566000Y-157678000D01*
G37*
G36*
X74366000Y-157678000D02*
X71566000Y-157678000D01*
X71566000Y-154878000D01*
X74366000Y-154878000D01*
X74366000Y-157678000D01*
X74366000Y-157678000D01*
G37*
G36*
X133662630Y-155108299D02*
X133822855Y-155156903D01*
X133970520Y-155235831D01*
X134099949Y-155342051D01*
X134206169Y-155471480D01*
X134285097Y-155619145D01*
X134333701Y-155779370D01*
X134350112Y-155946000D01*
X134333701Y-156112630D01*
X134285097Y-156272855D01*
X134206169Y-156420520D01*
X134099949Y-156549949D01*
X133970520Y-156656169D01*
X133822855Y-156735097D01*
X133662630Y-156783701D01*
X133537752Y-156796000D01*
X133454248Y-156796000D01*
X133329370Y-156783701D01*
X133169145Y-156735097D01*
X133021480Y-156656169D01*
X132892051Y-156549949D01*
X132785831Y-156420520D01*
X132706903Y-156272855D01*
X132658299Y-156112630D01*
X132641888Y-155946000D01*
X132658299Y-155779370D01*
X132706903Y-155619145D01*
X132785831Y-155471480D01*
X132892051Y-155342051D01*
X133021480Y-155235831D01*
X133169145Y-155156903D01*
X133329370Y-155108299D01*
X133454248Y-155096000D01*
X133537752Y-155096000D01*
X133662630Y-155108299D01*
X133662630Y-155108299D01*
G37*
G36*
X97034183Y-155017900D02*
X97161574Y-155070668D01*
X97276224Y-155147274D01*
X97373726Y-155244776D01*
X97438722Y-155342051D01*
X97450332Y-155359426D01*
X97503100Y-155486817D01*
X97530000Y-155622055D01*
X97530000Y-155759945D01*
X97503100Y-155895183D01*
X97450332Y-156022574D01*
X97390160Y-156112629D01*
X97373725Y-156137225D01*
X97276225Y-156234725D01*
X97161574Y-156311332D01*
X97034183Y-156364100D01*
X96898945Y-156391000D01*
X96761055Y-156391000D01*
X96625817Y-156364100D01*
X96498426Y-156311332D01*
X96383775Y-156234725D01*
X96286275Y-156137225D01*
X96269841Y-156112629D01*
X96209668Y-156022574D01*
X96156900Y-155895183D01*
X96130000Y-155759945D01*
X96130000Y-155622055D01*
X96156900Y-155486817D01*
X96209668Y-155359426D01*
X96221278Y-155342051D01*
X96286274Y-155244776D01*
X96383776Y-155147274D01*
X96498426Y-155070668D01*
X96625817Y-155017900D01*
X96761055Y-154991000D01*
X96898945Y-154991000D01*
X97034183Y-155017900D01*
X97034183Y-155017900D01*
G37*
G36*
X92530000Y-156391000D02*
X91130000Y-156391000D01*
X91130000Y-154991000D01*
X92530000Y-154991000D01*
X92530000Y-156391000D01*
X92530000Y-156391000D01*
G37*
G36*
X94534183Y-155017900D02*
X94661574Y-155070668D01*
X94776224Y-155147274D01*
X94873726Y-155244776D01*
X94938722Y-155342051D01*
X94950332Y-155359426D01*
X95003100Y-155486817D01*
X95030000Y-155622055D01*
X95030000Y-155759945D01*
X95003100Y-155895183D01*
X94950332Y-156022574D01*
X94890160Y-156112629D01*
X94873725Y-156137225D01*
X94776225Y-156234725D01*
X94661574Y-156311332D01*
X94534183Y-156364100D01*
X94398945Y-156391000D01*
X94261055Y-156391000D01*
X94125817Y-156364100D01*
X93998426Y-156311332D01*
X93883775Y-156234725D01*
X93786275Y-156137225D01*
X93769841Y-156112629D01*
X93709668Y-156022574D01*
X93656900Y-155895183D01*
X93630000Y-155759945D01*
X93630000Y-155622055D01*
X93656900Y-155486817D01*
X93709668Y-155359426D01*
X93721278Y-155342051D01*
X93786274Y-155244776D01*
X93883776Y-155147274D01*
X93998426Y-155070668D01*
X94125817Y-155017900D01*
X94261055Y-154991000D01*
X94398945Y-154991000D01*
X94534183Y-155017900D01*
X94534183Y-155017900D01*
G37*
G36*
X121514015Y-154491668D02*
X121645049Y-154545944D01*
X121762975Y-154624740D01*
X121863260Y-154725025D01*
X121942056Y-154842951D01*
X121996332Y-154973985D01*
X122024000Y-155113085D01*
X122024000Y-155254915D01*
X121996332Y-155394015D01*
X121942056Y-155525049D01*
X121863260Y-155642975D01*
X121762975Y-155743260D01*
X121645049Y-155822056D01*
X121514015Y-155876332D01*
X121374915Y-155904000D01*
X121233085Y-155904000D01*
X121093985Y-155876332D01*
X120962951Y-155822056D01*
X120845025Y-155743260D01*
X120744740Y-155642975D01*
X120665944Y-155525049D01*
X120611668Y-155394015D01*
X120584000Y-155254915D01*
X120584000Y-155113085D01*
X120611668Y-154973985D01*
X120665944Y-154842951D01*
X120744740Y-154725025D01*
X120845025Y-154624740D01*
X120962951Y-154545944D01*
X121093985Y-154491668D01*
X121233085Y-154464000D01*
X121374915Y-154464000D01*
X121514015Y-154491668D01*
X121514015Y-154491668D01*
G37*
G36*
X128395352Y-153104743D02*
X128540941Y-153165048D01*
X128671973Y-153252601D01*
X128783399Y-153364027D01*
X128870952Y-153495059D01*
X128931257Y-153640648D01*
X128962000Y-153795205D01*
X128962000Y-153952795D01*
X128931257Y-154107352D01*
X128870952Y-154252941D01*
X128783399Y-154383973D01*
X128671973Y-154495399D01*
X128540941Y-154582952D01*
X128395352Y-154643257D01*
X128240795Y-154674000D01*
X128083205Y-154674000D01*
X127928648Y-154643257D01*
X127783059Y-154582952D01*
X127652027Y-154495399D01*
X127540601Y-154383973D01*
X127453048Y-154252941D01*
X127392743Y-154107352D01*
X127362000Y-153952795D01*
X127362000Y-153795205D01*
X127392743Y-153640648D01*
X127453048Y-153495059D01*
X127540601Y-153364027D01*
X127652027Y-153252601D01*
X127783059Y-153165048D01*
X127928648Y-153104743D01*
X128083205Y-153074000D01*
X128240795Y-153074000D01*
X128395352Y-153104743D01*
X128395352Y-153104743D01*
G37*
G36*
X101246521Y-152794586D02*
X101410309Y-152862429D01*
X101557720Y-152960926D01*
X101683074Y-153086280D01*
X101781571Y-153233691D01*
X101849414Y-153397479D01*
X101884000Y-153571356D01*
X101884000Y-153748644D01*
X101849414Y-153922521D01*
X101781571Y-154086309D01*
X101683074Y-154233720D01*
X101557720Y-154359074D01*
X101410309Y-154457571D01*
X101246521Y-154525414D01*
X101072644Y-154560000D01*
X100895356Y-154560000D01*
X100721479Y-154525414D01*
X100557691Y-154457571D01*
X100410280Y-154359074D01*
X100284926Y-154233720D01*
X100186429Y-154086309D01*
X100118586Y-153922521D01*
X100084000Y-153748644D01*
X100084000Y-153571356D01*
X100118586Y-153397479D01*
X100186429Y-153233691D01*
X100284926Y-153086280D01*
X100410280Y-152960926D01*
X100557691Y-152862429D01*
X100721479Y-152794586D01*
X100895356Y-152760000D01*
X101072644Y-152760000D01*
X101246521Y-152794586D01*
X101246521Y-152794586D01*
G37*
G36*
X116486521Y-152794586D02*
X116650309Y-152862429D01*
X116797720Y-152960926D01*
X116923074Y-153086280D01*
X117021571Y-153233691D01*
X117089414Y-153397479D01*
X117124000Y-153571356D01*
X117124000Y-153748644D01*
X117089414Y-153922521D01*
X117021571Y-154086309D01*
X116923074Y-154233720D01*
X116797720Y-154359074D01*
X116650309Y-154457571D01*
X116486521Y-154525414D01*
X116312644Y-154560000D01*
X116135356Y-154560000D01*
X115961479Y-154525414D01*
X115797691Y-154457571D01*
X115650280Y-154359074D01*
X115524926Y-154233720D01*
X115426429Y-154086309D01*
X115358586Y-153922521D01*
X115324000Y-153748644D01*
X115324000Y-153571356D01*
X115358586Y-153397479D01*
X115426429Y-153233691D01*
X115524926Y-153086280D01*
X115650280Y-152960926D01*
X115797691Y-152862429D01*
X115961479Y-152794586D01*
X116135356Y-152760000D01*
X116312644Y-152760000D01*
X116486521Y-152794586D01*
X116486521Y-152794586D01*
G37*
G36*
X133662630Y-152568299D02*
X133822855Y-152616903D01*
X133970520Y-152695831D01*
X134099949Y-152802051D01*
X134206169Y-152931480D01*
X134285097Y-153079145D01*
X134333701Y-153239370D01*
X134350112Y-153406000D01*
X134333701Y-153572630D01*
X134285097Y-153732855D01*
X134206169Y-153880520D01*
X134099949Y-154009949D01*
X133970520Y-154116169D01*
X133822855Y-154195097D01*
X133662630Y-154243701D01*
X133537752Y-154256000D01*
X133454248Y-154256000D01*
X133329370Y-154243701D01*
X133169145Y-154195097D01*
X133021480Y-154116169D01*
X132892051Y-154009949D01*
X132785831Y-153880520D01*
X132706903Y-153732855D01*
X132658299Y-153572630D01*
X132641888Y-153406000D01*
X132658299Y-153239370D01*
X132706903Y-153079145D01*
X132785831Y-152931480D01*
X132892051Y-152802051D01*
X133021480Y-152695831D01*
X133169145Y-152616903D01*
X133329370Y-152568299D01*
X133454248Y-152556000D01*
X133537752Y-152556000D01*
X133662630Y-152568299D01*
X133662630Y-152568299D01*
G37*
G36*
X121514015Y-151951668D02*
X121645049Y-152005944D01*
X121762975Y-152084740D01*
X121863260Y-152185025D01*
X121942056Y-152302951D01*
X121996332Y-152433985D01*
X122024000Y-152573085D01*
X122024000Y-152714915D01*
X121996332Y-152854015D01*
X121942056Y-152985049D01*
X121863260Y-153102975D01*
X121762975Y-153203260D01*
X121645049Y-153282056D01*
X121514015Y-153336332D01*
X121374915Y-153364000D01*
X121233085Y-153364000D01*
X121093985Y-153336332D01*
X120962951Y-153282056D01*
X120845025Y-153203260D01*
X120744740Y-153102975D01*
X120665944Y-152985049D01*
X120611668Y-152854015D01*
X120584000Y-152714915D01*
X120584000Y-152573085D01*
X120611668Y-152433985D01*
X120665944Y-152302951D01*
X120744740Y-152185025D01*
X120845025Y-152084740D01*
X120962951Y-152005944D01*
X121093985Y-151951668D01*
X121233085Y-151924000D01*
X121374915Y-151924000D01*
X121514015Y-151951668D01*
X121514015Y-151951668D01*
G37*
G36*
X128962000Y-152174000D02*
X127362000Y-152174000D01*
X127362000Y-150574000D01*
X128962000Y-150574000D01*
X128962000Y-152174000D01*
X128962000Y-152174000D01*
G37*
G36*
X116486521Y-150254586D02*
X116650309Y-150322429D01*
X116797720Y-150420926D01*
X116923074Y-150546280D01*
X117021571Y-150693691D01*
X117089414Y-150857479D01*
X117124000Y-151031356D01*
X117124000Y-151208644D01*
X117089414Y-151382521D01*
X117021571Y-151546309D01*
X116923074Y-151693720D01*
X116797720Y-151819074D01*
X116650309Y-151917571D01*
X116486521Y-151985414D01*
X116312644Y-152020000D01*
X116135356Y-152020000D01*
X115961479Y-151985414D01*
X115797691Y-151917571D01*
X115650280Y-151819074D01*
X115524926Y-151693720D01*
X115426429Y-151546309D01*
X115358586Y-151382521D01*
X115324000Y-151208644D01*
X115324000Y-151031356D01*
X115358586Y-150857479D01*
X115426429Y-150693691D01*
X115524926Y-150546280D01*
X115650280Y-150420926D01*
X115797691Y-150322429D01*
X115961479Y-150254586D01*
X116135356Y-150220000D01*
X116312644Y-150220000D01*
X116486521Y-150254586D01*
X116486521Y-150254586D01*
G37*
G36*
X101246521Y-150254586D02*
X101410309Y-150322429D01*
X101557720Y-150420926D01*
X101683074Y-150546280D01*
X101781571Y-150693691D01*
X101849414Y-150857479D01*
X101884000Y-151031356D01*
X101884000Y-151208644D01*
X101849414Y-151382521D01*
X101781571Y-151546309D01*
X101683074Y-151693720D01*
X101557720Y-151819074D01*
X101410309Y-151917571D01*
X101246521Y-151985414D01*
X101072644Y-152020000D01*
X100895356Y-152020000D01*
X100721479Y-151985414D01*
X100557691Y-151917571D01*
X100410280Y-151819074D01*
X100284926Y-151693720D01*
X100186429Y-151546309D01*
X100118586Y-151382521D01*
X100084000Y-151208644D01*
X100084000Y-151031356D01*
X100118586Y-150857479D01*
X100186429Y-150693691D01*
X100284926Y-150546280D01*
X100410280Y-150420926D01*
X100557691Y-150322429D01*
X100721479Y-150254586D01*
X100895356Y-150220000D01*
X101072644Y-150220000D01*
X101246521Y-150254586D01*
X101246521Y-150254586D01*
G37*
G36*
X134346000Y-151716000D02*
X132646000Y-151716000D01*
X132646000Y-150016000D01*
X134346000Y-150016000D01*
X134346000Y-151716000D01*
X134346000Y-151716000D01*
G37*
G36*
X121514015Y-149411668D02*
X121645049Y-149465944D01*
X121762975Y-149544740D01*
X121863260Y-149645025D01*
X121942056Y-149762951D01*
X121996332Y-149893985D01*
X122024000Y-150033085D01*
X122024000Y-150174915D01*
X121996332Y-150314015D01*
X121942056Y-150445049D01*
X121863260Y-150562975D01*
X121762975Y-150663260D01*
X121645049Y-150742056D01*
X121514015Y-150796332D01*
X121374915Y-150824000D01*
X121233085Y-150824000D01*
X121093985Y-150796332D01*
X120962951Y-150742056D01*
X120845025Y-150663260D01*
X120744740Y-150562975D01*
X120665944Y-150445049D01*
X120611668Y-150314015D01*
X120584000Y-150174915D01*
X120584000Y-150033085D01*
X120611668Y-149893985D01*
X120665944Y-149762951D01*
X120744740Y-149645025D01*
X120845025Y-149544740D01*
X120962951Y-149465944D01*
X121093985Y-149411668D01*
X121233085Y-149384000D01*
X121374915Y-149384000D01*
X121514015Y-149411668D01*
X121514015Y-149411668D01*
G37*
G36*
X96460000Y-150130000D02*
X94860000Y-150130000D01*
X94860000Y-148530000D01*
X96460000Y-148530000D01*
X96460000Y-150130000D01*
X96460000Y-150130000D01*
G37*
G36*
X93393352Y-148560743D02*
X93538941Y-148621048D01*
X93669973Y-148708601D01*
X93781399Y-148820027D01*
X93868952Y-148951059D01*
X93929257Y-149096648D01*
X93960000Y-149251205D01*
X93960000Y-149408795D01*
X93929257Y-149563352D01*
X93868952Y-149708941D01*
X93781399Y-149839973D01*
X93669973Y-149951399D01*
X93538941Y-150038952D01*
X93393352Y-150099257D01*
X93238795Y-150130000D01*
X93081205Y-150130000D01*
X92926648Y-150099257D01*
X92781059Y-150038952D01*
X92650027Y-149951399D01*
X92538601Y-149839973D01*
X92451048Y-149708941D01*
X92390743Y-149563352D01*
X92360000Y-149408795D01*
X92360000Y-149251205D01*
X92390743Y-149096648D01*
X92451048Y-148951059D01*
X92538601Y-148820027D01*
X92650027Y-148708601D01*
X92781059Y-148621048D01*
X92926648Y-148560743D01*
X93081205Y-148530000D01*
X93238795Y-148530000D01*
X93393352Y-148560743D01*
X93393352Y-148560743D01*
G37*
G36*
X116486521Y-147714586D02*
X116650309Y-147782429D01*
X116797720Y-147880926D01*
X116923074Y-148006280D01*
X117021571Y-148153691D01*
X117089414Y-148317479D01*
X117124000Y-148491356D01*
X117124000Y-148668644D01*
X117089414Y-148842521D01*
X117021571Y-149006309D01*
X116923074Y-149153720D01*
X116797720Y-149279074D01*
X116650309Y-149377571D01*
X116486521Y-149445414D01*
X116312644Y-149480000D01*
X116135356Y-149480000D01*
X115961479Y-149445414D01*
X115797691Y-149377571D01*
X115650280Y-149279074D01*
X115524926Y-149153720D01*
X115426429Y-149006309D01*
X115358586Y-148842521D01*
X115324000Y-148668644D01*
X115324000Y-148491356D01*
X115358586Y-148317479D01*
X115426429Y-148153691D01*
X115524926Y-148006280D01*
X115650280Y-147880926D01*
X115797691Y-147782429D01*
X115961479Y-147714586D01*
X116135356Y-147680000D01*
X116312644Y-147680000D01*
X116486521Y-147714586D01*
X116486521Y-147714586D01*
G37*
G36*
X101246521Y-147714586D02*
X101410309Y-147782429D01*
X101557720Y-147880926D01*
X101683074Y-148006280D01*
X101781571Y-148153691D01*
X101849414Y-148317479D01*
X101884000Y-148491356D01*
X101884000Y-148668644D01*
X101849414Y-148842521D01*
X101781571Y-149006309D01*
X101683074Y-149153720D01*
X101557720Y-149279074D01*
X101410309Y-149377571D01*
X101246521Y-149445414D01*
X101072644Y-149480000D01*
X100895356Y-149480000D01*
X100721479Y-149445414D01*
X100557691Y-149377571D01*
X100410280Y-149279074D01*
X100284926Y-149153720D01*
X100186429Y-149006309D01*
X100118586Y-148842521D01*
X100084000Y-148668644D01*
X100084000Y-148491356D01*
X100118586Y-148317479D01*
X100186429Y-148153691D01*
X100284926Y-148006280D01*
X100410280Y-147880926D01*
X100557691Y-147782429D01*
X100721479Y-147714586D01*
X100895356Y-147680000D01*
X101072644Y-147680000D01*
X101246521Y-147714586D01*
X101246521Y-147714586D01*
G37*
G36*
X134687888Y-146182470D02*
X134868274Y-146218350D01*
X135059362Y-146297502D01*
X135231336Y-146412411D01*
X135377589Y-146558664D01*
X135492498Y-146730638D01*
X135571650Y-146921726D01*
X135612000Y-147124584D01*
X135612000Y-147331416D01*
X135571650Y-147534274D01*
X135492498Y-147725362D01*
X135377589Y-147897336D01*
X135231336Y-148043589D01*
X135059362Y-148158498D01*
X134868274Y-148237650D01*
X134687888Y-148273530D01*
X134665417Y-148278000D01*
X134458583Y-148278000D01*
X134436112Y-148273530D01*
X134255726Y-148237650D01*
X134064638Y-148158498D01*
X133892664Y-148043589D01*
X133746411Y-147897336D01*
X133631502Y-147725362D01*
X133552350Y-147534274D01*
X133512000Y-147331416D01*
X133512000Y-147124584D01*
X133552350Y-146921726D01*
X133631502Y-146730638D01*
X133746411Y-146558664D01*
X133892664Y-146412411D01*
X134064638Y-146297502D01*
X134255726Y-146218350D01*
X134436112Y-146182470D01*
X134458583Y-146178000D01*
X134665417Y-146178000D01*
X134687888Y-146182470D01*
X134687888Y-146182470D01*
G37*
G36*
X116486521Y-145174586D02*
X116650309Y-145242429D01*
X116797720Y-145340926D01*
X116923074Y-145466280D01*
X117021571Y-145613691D01*
X117089414Y-145777479D01*
X117124000Y-145951356D01*
X117124000Y-146128644D01*
X117089414Y-146302521D01*
X117021571Y-146466309D01*
X116923074Y-146613720D01*
X116797720Y-146739074D01*
X116650309Y-146837571D01*
X116486521Y-146905414D01*
X116312644Y-146940000D01*
X116135356Y-146940000D01*
X115961479Y-146905414D01*
X115797691Y-146837571D01*
X115650280Y-146739074D01*
X115524926Y-146613720D01*
X115426429Y-146466309D01*
X115358586Y-146302521D01*
X115324000Y-146128644D01*
X115324000Y-145951356D01*
X115358586Y-145777479D01*
X115426429Y-145613691D01*
X115524926Y-145466280D01*
X115650280Y-145340926D01*
X115797691Y-145242429D01*
X115961479Y-145174586D01*
X116135356Y-145140000D01*
X116312644Y-145140000D01*
X116486521Y-145174586D01*
X116486521Y-145174586D01*
G37*
G36*
X101246521Y-145174586D02*
X101410309Y-145242429D01*
X101557720Y-145340926D01*
X101683074Y-145466280D01*
X101781571Y-145613691D01*
X101849414Y-145777479D01*
X101884000Y-145951356D01*
X101884000Y-146128644D01*
X101849414Y-146302521D01*
X101781571Y-146466309D01*
X101683074Y-146613720D01*
X101557720Y-146739074D01*
X101410309Y-146837571D01*
X101246521Y-146905414D01*
X101072644Y-146940000D01*
X100895356Y-146940000D01*
X100721479Y-146905414D01*
X100557691Y-146837571D01*
X100410280Y-146739074D01*
X100284926Y-146613720D01*
X100186429Y-146466309D01*
X100118586Y-146302521D01*
X100084000Y-146128644D01*
X100084000Y-145951356D01*
X100118586Y-145777479D01*
X100186429Y-145613691D01*
X100284926Y-145466280D01*
X100410280Y-145340926D01*
X100557691Y-145242429D01*
X100721479Y-145174586D01*
X100895356Y-145140000D01*
X101072644Y-145140000D01*
X101246521Y-145174586D01*
X101246521Y-145174586D01*
G37*
G36*
X137307228Y-145126625D02*
X137466467Y-145192584D01*
X137609783Y-145288345D01*
X137731655Y-145410217D01*
X137827416Y-145553533D01*
X137893375Y-145712772D01*
X137927000Y-145881819D01*
X137927000Y-146054181D01*
X137893375Y-146223228D01*
X137827416Y-146382467D01*
X137731655Y-146525783D01*
X137609783Y-146647655D01*
X137466467Y-146743416D01*
X137307228Y-146809375D01*
X137138181Y-146843000D01*
X136965819Y-146843000D01*
X136796772Y-146809375D01*
X136637533Y-146743416D01*
X136494217Y-146647655D01*
X136372345Y-146525783D01*
X136276584Y-146382467D01*
X136210625Y-146223228D01*
X136177000Y-146054181D01*
X136177000Y-145881819D01*
X136210625Y-145712772D01*
X136276584Y-145553533D01*
X136372345Y-145410217D01*
X136494217Y-145288345D01*
X136637533Y-145192584D01*
X136796772Y-145126625D01*
X136965819Y-145093000D01*
X137138181Y-145093000D01*
X137307228Y-145126625D01*
X137307228Y-145126625D01*
G37*
G36*
X119663224Y-145350128D02*
X119795175Y-145390155D01*
X119916781Y-145455155D01*
X120023370Y-145542630D01*
X120110845Y-145649219D01*
X120175845Y-145770825D01*
X120215872Y-145902776D01*
X120229387Y-146040000D01*
X120215872Y-146177224D01*
X120175845Y-146309175D01*
X120110845Y-146430781D01*
X120023370Y-146537370D01*
X119916781Y-146624845D01*
X119795175Y-146689845D01*
X119663224Y-146729872D01*
X119560390Y-146740000D01*
X119491610Y-146740000D01*
X119388776Y-146729872D01*
X119256825Y-146689845D01*
X119135219Y-146624845D01*
X119028630Y-146537370D01*
X118941155Y-146430781D01*
X118876155Y-146309175D01*
X118836128Y-146177224D01*
X118822613Y-146040000D01*
X118836128Y-145902776D01*
X118876155Y-145770825D01*
X118941155Y-145649219D01*
X119028630Y-145542630D01*
X119135219Y-145455155D01*
X119256825Y-145390155D01*
X119388776Y-145350128D01*
X119491610Y-145340000D01*
X119560390Y-145340000D01*
X119663224Y-145350128D01*
X119663224Y-145350128D01*
G37*
G36*
X127350183Y-145366900D02*
X127477574Y-145419668D01*
X127592224Y-145496274D01*
X127689726Y-145593776D01*
X127726771Y-145649219D01*
X127766332Y-145708426D01*
X127819100Y-145835817D01*
X127846000Y-145971055D01*
X127846000Y-146108945D01*
X127819100Y-146244183D01*
X127766332Y-146371574D01*
X127689726Y-146486224D01*
X127592224Y-146583726D01*
X127496547Y-146647655D01*
X127477574Y-146660332D01*
X127350183Y-146713100D01*
X127214945Y-146740000D01*
X127077055Y-146740000D01*
X126941817Y-146713100D01*
X126814426Y-146660332D01*
X126795453Y-146647655D01*
X126699776Y-146583726D01*
X126602274Y-146486224D01*
X126525668Y-146371574D01*
X126472900Y-146244183D01*
X126446000Y-146108945D01*
X126446000Y-145971055D01*
X126472900Y-145835817D01*
X126525668Y-145708426D01*
X126565229Y-145649219D01*
X126602274Y-145593776D01*
X126699776Y-145496274D01*
X126814426Y-145419668D01*
X126941817Y-145366900D01*
X127077055Y-145340000D01*
X127214945Y-145340000D01*
X127350183Y-145366900D01*
X127350183Y-145366900D01*
G37*
G36*
X104167521Y-144031586D02*
X104331309Y-144099429D01*
X104478720Y-144197926D01*
X104604074Y-144323280D01*
X104702571Y-144470691D01*
X104770414Y-144634479D01*
X104805000Y-144808356D01*
X104805000Y-144985644D01*
X104770414Y-145159521D01*
X104702571Y-145323309D01*
X104604074Y-145470720D01*
X104478720Y-145596074D01*
X104331309Y-145694571D01*
X104167521Y-145762414D01*
X103993644Y-145797000D01*
X103816356Y-145797000D01*
X103642479Y-145762414D01*
X103478691Y-145694571D01*
X103331280Y-145596074D01*
X103205926Y-145470720D01*
X103107429Y-145323309D01*
X103039586Y-145159521D01*
X103005000Y-144985644D01*
X103005000Y-144808356D01*
X103039586Y-144634479D01*
X103107429Y-144470691D01*
X103205926Y-144323280D01*
X103331280Y-144197926D01*
X103478691Y-144099429D01*
X103642479Y-144031586D01*
X103816356Y-143997000D01*
X103993644Y-143997000D01*
X104167521Y-144031586D01*
X104167521Y-144031586D01*
G37*
G36*
X101246521Y-142634586D02*
X101410309Y-142702429D01*
X101557720Y-142800926D01*
X101683074Y-142926280D01*
X101781571Y-143073691D01*
X101849414Y-143237479D01*
X101884000Y-143411356D01*
X101884000Y-143588644D01*
X101849414Y-143762521D01*
X101781571Y-143926309D01*
X101683074Y-144073720D01*
X101557720Y-144199074D01*
X101410309Y-144297571D01*
X101246521Y-144365414D01*
X101072644Y-144400000D01*
X100895356Y-144400000D01*
X100721479Y-144365414D01*
X100557691Y-144297571D01*
X100410280Y-144199074D01*
X100284926Y-144073720D01*
X100186429Y-143926309D01*
X100118586Y-143762521D01*
X100084000Y-143588644D01*
X100084000Y-143411356D01*
X100118586Y-143237479D01*
X100186429Y-143073691D01*
X100284926Y-142926280D01*
X100410280Y-142800926D01*
X100557691Y-142702429D01*
X100721479Y-142634586D01*
X100895356Y-142600000D01*
X101072644Y-142600000D01*
X101246521Y-142634586D01*
X101246521Y-142634586D01*
G37*
G36*
X116486521Y-142634586D02*
X116650309Y-142702429D01*
X116797720Y-142800926D01*
X116923074Y-142926280D01*
X117021571Y-143073691D01*
X117089414Y-143237479D01*
X117124000Y-143411356D01*
X117124000Y-143588644D01*
X117089414Y-143762521D01*
X117021571Y-143926309D01*
X116923074Y-144073720D01*
X116797720Y-144199074D01*
X116650309Y-144297571D01*
X116486521Y-144365414D01*
X116312644Y-144400000D01*
X116135356Y-144400000D01*
X115961479Y-144365414D01*
X115797691Y-144297571D01*
X115650280Y-144199074D01*
X115524926Y-144073720D01*
X115426429Y-143926309D01*
X115358586Y-143762521D01*
X115324000Y-143588644D01*
X115324000Y-143411356D01*
X115358586Y-143237479D01*
X115426429Y-143073691D01*
X115524926Y-142926280D01*
X115650280Y-142800926D01*
X115797691Y-142702429D01*
X115961479Y-142634586D01*
X116135356Y-142600000D01*
X116312644Y-142600000D01*
X116486521Y-142634586D01*
X116486521Y-142634586D01*
G37*
G36*
X127283224Y-142810128D02*
X127415175Y-142850155D01*
X127536781Y-142915155D01*
X127643370Y-143002630D01*
X127730845Y-143109219D01*
X127795845Y-143230825D01*
X127835872Y-143362776D01*
X127849387Y-143500000D01*
X127835872Y-143637224D01*
X127795845Y-143769175D01*
X127730845Y-143890781D01*
X127643370Y-143997370D01*
X127536781Y-144084845D01*
X127415175Y-144149845D01*
X127283224Y-144189872D01*
X127180390Y-144200000D01*
X127111610Y-144200000D01*
X127008776Y-144189872D01*
X126876825Y-144149845D01*
X126755219Y-144084845D01*
X126648630Y-143997370D01*
X126561155Y-143890781D01*
X126496155Y-143769175D01*
X126456128Y-143637224D01*
X126442613Y-143500000D01*
X126456128Y-143362776D01*
X126496155Y-143230825D01*
X126561155Y-143109219D01*
X126648630Y-143002630D01*
X126755219Y-142915155D01*
X126876825Y-142850155D01*
X127008776Y-142810128D01*
X127111610Y-142800000D01*
X127180390Y-142800000D01*
X127283224Y-142810128D01*
X127283224Y-142810128D01*
G37*
G36*
X119730183Y-142826900D02*
X119857574Y-142879668D01*
X119972224Y-142956274D01*
X120069726Y-143053776D01*
X120106771Y-143109219D01*
X120146332Y-143168426D01*
X120199100Y-143295817D01*
X120226000Y-143431055D01*
X120226000Y-143568945D01*
X120199100Y-143704183D01*
X120146332Y-143831574D01*
X120069726Y-143946224D01*
X119972224Y-144043726D01*
X119888858Y-144099429D01*
X119857574Y-144120332D01*
X119730183Y-144173100D01*
X119594945Y-144200000D01*
X119457055Y-144200000D01*
X119321817Y-144173100D01*
X119194426Y-144120332D01*
X119163142Y-144099429D01*
X119079776Y-144043726D01*
X118982274Y-143946224D01*
X118905668Y-143831574D01*
X118852900Y-143704183D01*
X118826000Y-143568945D01*
X118826000Y-143431055D01*
X118852900Y-143295817D01*
X118905668Y-143168426D01*
X118945229Y-143109219D01*
X118982274Y-143053776D01*
X119079776Y-142956274D01*
X119194426Y-142879668D01*
X119321817Y-142826900D01*
X119457055Y-142800000D01*
X119594945Y-142800000D01*
X119730183Y-142826900D01*
X119730183Y-142826900D01*
G37*
G36*
X104167521Y-141491586D02*
X104331309Y-141559429D01*
X104478720Y-141657926D01*
X104604074Y-141783280D01*
X104702571Y-141930691D01*
X104770414Y-142094479D01*
X104805000Y-142268356D01*
X104805000Y-142445644D01*
X104770414Y-142619521D01*
X104702571Y-142783309D01*
X104604074Y-142930720D01*
X104478720Y-143056074D01*
X104331309Y-143154571D01*
X104167521Y-143222414D01*
X103993644Y-143257000D01*
X103816356Y-143257000D01*
X103642479Y-143222414D01*
X103478691Y-143154571D01*
X103331280Y-143056074D01*
X103205926Y-142930720D01*
X103107429Y-142783309D01*
X103039586Y-142619521D01*
X103005000Y-142445644D01*
X103005000Y-142268356D01*
X103039586Y-142094479D01*
X103107429Y-141930691D01*
X103205926Y-141783280D01*
X103331280Y-141657926D01*
X103478691Y-141559429D01*
X103642479Y-141491586D01*
X103816356Y-141457000D01*
X103993644Y-141457000D01*
X104167521Y-141491586D01*
X104167521Y-141491586D01*
G37*
G36*
X96460000Y-142500000D02*
X94860000Y-142500000D01*
X94860000Y-140900000D01*
X96460000Y-140900000D01*
X96460000Y-142500000D01*
X96460000Y-142500000D01*
G37*
G36*
X93393352Y-140930743D02*
X93538941Y-140991048D01*
X93669973Y-141078601D01*
X93781399Y-141190027D01*
X93868952Y-141321059D01*
X93929257Y-141466648D01*
X93960000Y-141621205D01*
X93960000Y-141778795D01*
X93929257Y-141933352D01*
X93868952Y-142078941D01*
X93781399Y-142209973D01*
X93669973Y-142321399D01*
X93538941Y-142408952D01*
X93393352Y-142469257D01*
X93238795Y-142500000D01*
X93081205Y-142500000D01*
X92926648Y-142469257D01*
X92781059Y-142408952D01*
X92650027Y-142321399D01*
X92538601Y-142209973D01*
X92451048Y-142078941D01*
X92390743Y-141933352D01*
X92360000Y-141778795D01*
X92360000Y-141621205D01*
X92390743Y-141466648D01*
X92451048Y-141321059D01*
X92538601Y-141190027D01*
X92650027Y-141078601D01*
X92781059Y-140991048D01*
X92926648Y-140930743D01*
X93081205Y-140900000D01*
X93238795Y-140900000D01*
X93393352Y-140930743D01*
X93393352Y-140930743D01*
G37*
G36*
X137307228Y-140626625D02*
X137466467Y-140692584D01*
X137609783Y-140788345D01*
X137731655Y-140910217D01*
X137827416Y-141053533D01*
X137893375Y-141212772D01*
X137927000Y-141381819D01*
X137927000Y-141554181D01*
X137893375Y-141723228D01*
X137827416Y-141882467D01*
X137731655Y-142025783D01*
X137609783Y-142147655D01*
X137466467Y-142243416D01*
X137307228Y-142309375D01*
X137138181Y-142343000D01*
X136965819Y-142343000D01*
X136796772Y-142309375D01*
X136637533Y-142243416D01*
X136494217Y-142147655D01*
X136372345Y-142025783D01*
X136276584Y-141882467D01*
X136210625Y-141723228D01*
X136177000Y-141554181D01*
X136177000Y-141381819D01*
X136210625Y-141212772D01*
X136276584Y-141053533D01*
X136372345Y-140910217D01*
X136494217Y-140788345D01*
X136637533Y-140692584D01*
X136796772Y-140626625D01*
X136965819Y-140593000D01*
X137138181Y-140593000D01*
X137307228Y-140626625D01*
X137307228Y-140626625D01*
G37*
G36*
X116486521Y-140094586D02*
X116650309Y-140162429D01*
X116797720Y-140260926D01*
X116923074Y-140386280D01*
X117021571Y-140533691D01*
X117089414Y-140697479D01*
X117124000Y-140871356D01*
X117124000Y-141048644D01*
X117089414Y-141222521D01*
X117021571Y-141386309D01*
X116923074Y-141533720D01*
X116797720Y-141659074D01*
X116650309Y-141757571D01*
X116486521Y-141825414D01*
X116312644Y-141860000D01*
X116135356Y-141860000D01*
X115961479Y-141825414D01*
X115797691Y-141757571D01*
X115650280Y-141659074D01*
X115524926Y-141533720D01*
X115426429Y-141386309D01*
X115358586Y-141222521D01*
X115324000Y-141048644D01*
X115324000Y-140871356D01*
X115358586Y-140697479D01*
X115426429Y-140533691D01*
X115524926Y-140386280D01*
X115650280Y-140260926D01*
X115797691Y-140162429D01*
X115961479Y-140094586D01*
X116135356Y-140060000D01*
X116312644Y-140060000D01*
X116486521Y-140094586D01*
X116486521Y-140094586D01*
G37*
G36*
X101246521Y-140094586D02*
X101410309Y-140162429D01*
X101557720Y-140260926D01*
X101683074Y-140386280D01*
X101781571Y-140533691D01*
X101849414Y-140697479D01*
X101884000Y-140871356D01*
X101884000Y-141048644D01*
X101849414Y-141222521D01*
X101781571Y-141386309D01*
X101683074Y-141533720D01*
X101557720Y-141659074D01*
X101410309Y-141757571D01*
X101246521Y-141825414D01*
X101072644Y-141860000D01*
X100895356Y-141860000D01*
X100721479Y-141825414D01*
X100557691Y-141757571D01*
X100410280Y-141659074D01*
X100284926Y-141533720D01*
X100186429Y-141386309D01*
X100118586Y-141222521D01*
X100084000Y-141048644D01*
X100084000Y-140871356D01*
X100118586Y-140697479D01*
X100186429Y-140533691D01*
X100284926Y-140386280D01*
X100410280Y-140260926D01*
X100557691Y-140162429D01*
X100721479Y-140094586D01*
X100895356Y-140060000D01*
X101072644Y-140060000D01*
X101246521Y-140094586D01*
X101246521Y-140094586D01*
G37*
G36*
X127283224Y-140270128D02*
X127415175Y-140310155D01*
X127536781Y-140375155D01*
X127643370Y-140462630D01*
X127730845Y-140569219D01*
X127795845Y-140690825D01*
X127835872Y-140822776D01*
X127849387Y-140960000D01*
X127835872Y-141097224D01*
X127795845Y-141229175D01*
X127730845Y-141350781D01*
X127643370Y-141457370D01*
X127536781Y-141544845D01*
X127415175Y-141609845D01*
X127283224Y-141649872D01*
X127180390Y-141660000D01*
X127111610Y-141660000D01*
X127008776Y-141649872D01*
X126876825Y-141609845D01*
X126755219Y-141544845D01*
X126648630Y-141457370D01*
X126561155Y-141350781D01*
X126496155Y-141229175D01*
X126456128Y-141097224D01*
X126442613Y-140960000D01*
X126456128Y-140822776D01*
X126496155Y-140690825D01*
X126561155Y-140569219D01*
X126648630Y-140462630D01*
X126755219Y-140375155D01*
X126876825Y-140310155D01*
X127008776Y-140270128D01*
X127111610Y-140260000D01*
X127180390Y-140260000D01*
X127283224Y-140270128D01*
X127283224Y-140270128D01*
G37*
G36*
X119730183Y-140286900D02*
X119857574Y-140339668D01*
X119972224Y-140416274D01*
X120069726Y-140513776D01*
X120106771Y-140569219D01*
X120146332Y-140628426D01*
X120199100Y-140755817D01*
X120226000Y-140891055D01*
X120226000Y-141028945D01*
X120199100Y-141164183D01*
X120156097Y-141268000D01*
X120146332Y-141291574D01*
X120069726Y-141406224D01*
X119972224Y-141503726D01*
X119896712Y-141554181D01*
X119857574Y-141580332D01*
X119730183Y-141633100D01*
X119594945Y-141660000D01*
X119457055Y-141660000D01*
X119321817Y-141633100D01*
X119194426Y-141580332D01*
X119155288Y-141554181D01*
X119079776Y-141503726D01*
X118982274Y-141406224D01*
X118905668Y-141291574D01*
X118895903Y-141268000D01*
X118852900Y-141164183D01*
X118826000Y-141028945D01*
X118826000Y-140891055D01*
X118852900Y-140755817D01*
X118905668Y-140628426D01*
X118945229Y-140569219D01*
X118982274Y-140513776D01*
X119079776Y-140416274D01*
X119194426Y-140339668D01*
X119321817Y-140286900D01*
X119457055Y-140260000D01*
X119594945Y-140260000D01*
X119730183Y-140286900D01*
X119730183Y-140286900D01*
G37*
G36*
X134687888Y-139172470D02*
X134868274Y-139208350D01*
X135059362Y-139287502D01*
X135231336Y-139402411D01*
X135377589Y-139548664D01*
X135492498Y-139720638D01*
X135571650Y-139911726D01*
X135612000Y-140114584D01*
X135612000Y-140321416D01*
X135571650Y-140524274D01*
X135492498Y-140715362D01*
X135377589Y-140887336D01*
X135231336Y-141033589D01*
X135059362Y-141148498D01*
X134868274Y-141227650D01*
X134687888Y-141263530D01*
X134665417Y-141268000D01*
X134458583Y-141268000D01*
X134436112Y-141263530D01*
X134255726Y-141227650D01*
X134064638Y-141148498D01*
X133892664Y-141033589D01*
X133746411Y-140887336D01*
X133631502Y-140715362D01*
X133552350Y-140524274D01*
X133512000Y-140321416D01*
X133512000Y-140114584D01*
X133552350Y-139911726D01*
X133631502Y-139720638D01*
X133746411Y-139548664D01*
X133892664Y-139402411D01*
X134064638Y-139287502D01*
X134255726Y-139208350D01*
X134436112Y-139172470D01*
X134458583Y-139168000D01*
X134665417Y-139168000D01*
X134687888Y-139172470D01*
X134687888Y-139172470D01*
G37*
G36*
X116486521Y-137554586D02*
X116650309Y-137622429D01*
X116797720Y-137720926D01*
X116923074Y-137846280D01*
X117021571Y-137993691D01*
X117089414Y-138157479D01*
X117124000Y-138331356D01*
X117124000Y-138508644D01*
X117089414Y-138682521D01*
X117021571Y-138846309D01*
X116923074Y-138993720D01*
X116797720Y-139119074D01*
X116650309Y-139217571D01*
X116486521Y-139285414D01*
X116312644Y-139320000D01*
X116135356Y-139320000D01*
X115961479Y-139285414D01*
X115797691Y-139217571D01*
X115650280Y-139119074D01*
X115524926Y-138993720D01*
X115426429Y-138846309D01*
X115358586Y-138682521D01*
X115324000Y-138508644D01*
X115324000Y-138331356D01*
X115358586Y-138157479D01*
X115426429Y-137993691D01*
X115524926Y-137846280D01*
X115650280Y-137720926D01*
X115797691Y-137622429D01*
X115961479Y-137554586D01*
X116135356Y-137520000D01*
X116312644Y-137520000D01*
X116486521Y-137554586D01*
X116486521Y-137554586D01*
G37*
G36*
X101246521Y-137554586D02*
X101410309Y-137622429D01*
X101557720Y-137720926D01*
X101683074Y-137846280D01*
X101781571Y-137993691D01*
X101849414Y-138157479D01*
X101884000Y-138331356D01*
X101884000Y-138508644D01*
X101849414Y-138682521D01*
X101781571Y-138846309D01*
X101683074Y-138993720D01*
X101557720Y-139119074D01*
X101410309Y-139217571D01*
X101246521Y-139285414D01*
X101072644Y-139320000D01*
X100895356Y-139320000D01*
X100721479Y-139285414D01*
X100557691Y-139217571D01*
X100410280Y-139119074D01*
X100284926Y-138993720D01*
X100186429Y-138846309D01*
X100118586Y-138682521D01*
X100084000Y-138508644D01*
X100084000Y-138331356D01*
X100118586Y-138157479D01*
X100186429Y-137993691D01*
X100284926Y-137846280D01*
X100410280Y-137720926D01*
X100557691Y-137622429D01*
X100721479Y-137554586D01*
X100895356Y-137520000D01*
X101072644Y-137520000D01*
X101246521Y-137554586D01*
X101246521Y-137554586D01*
G37*
G36*
X119730183Y-137746900D02*
X119857574Y-137799668D01*
X119972224Y-137876274D01*
X120069726Y-137973776D01*
X120106771Y-138029219D01*
X120146332Y-138088426D01*
X120199100Y-138215817D01*
X120226000Y-138351055D01*
X120226000Y-138488945D01*
X120199100Y-138624183D01*
X120146332Y-138751574D01*
X120069726Y-138866224D01*
X119972224Y-138963726D01*
X119857574Y-139040332D01*
X119730183Y-139093100D01*
X119594945Y-139120000D01*
X119457055Y-139120000D01*
X119321817Y-139093100D01*
X119194426Y-139040332D01*
X119079776Y-138963726D01*
X118982274Y-138866224D01*
X118905668Y-138751574D01*
X118852900Y-138624183D01*
X118826000Y-138488945D01*
X118826000Y-138351055D01*
X118852900Y-138215817D01*
X118905668Y-138088426D01*
X118945229Y-138029219D01*
X118982274Y-137973776D01*
X119079776Y-137876274D01*
X119194426Y-137799668D01*
X119321817Y-137746900D01*
X119457055Y-137720000D01*
X119594945Y-137720000D01*
X119730183Y-137746900D01*
X119730183Y-137746900D01*
G37*
G36*
X127283224Y-137730128D02*
X127415175Y-137770155D01*
X127536781Y-137835155D01*
X127643370Y-137922630D01*
X127730845Y-138029219D01*
X127795845Y-138150825D01*
X127835872Y-138282776D01*
X127849387Y-138420000D01*
X127835872Y-138557224D01*
X127795845Y-138689175D01*
X127730845Y-138810781D01*
X127643370Y-138917370D01*
X127536781Y-139004845D01*
X127415175Y-139069845D01*
X127283224Y-139109872D01*
X127180390Y-139120000D01*
X127111610Y-139120000D01*
X127008776Y-139109872D01*
X126876825Y-139069845D01*
X126755219Y-139004845D01*
X126648630Y-138917370D01*
X126561155Y-138810781D01*
X126496155Y-138689175D01*
X126456128Y-138557224D01*
X126442613Y-138420000D01*
X126456128Y-138282776D01*
X126496155Y-138150825D01*
X126561155Y-138029219D01*
X126648630Y-137922630D01*
X126755219Y-137835155D01*
X126876825Y-137770155D01*
X127008776Y-137730128D01*
X127111610Y-137720000D01*
X127180390Y-137720000D01*
X127283224Y-137730128D01*
X127283224Y-137730128D01*
G37*
G36*
X133662630Y-135804299D02*
X133822855Y-135852903D01*
X133970520Y-135931831D01*
X134099949Y-136038051D01*
X134206169Y-136167480D01*
X134285097Y-136315145D01*
X134333701Y-136475370D01*
X134350112Y-136642000D01*
X134333701Y-136808630D01*
X134285097Y-136968855D01*
X134206169Y-137116520D01*
X134099949Y-137245949D01*
X133970520Y-137352169D01*
X133822855Y-137431097D01*
X133662630Y-137479701D01*
X133537752Y-137492000D01*
X133454248Y-137492000D01*
X133329370Y-137479701D01*
X133169145Y-137431097D01*
X133021480Y-137352169D01*
X132892051Y-137245949D01*
X132785831Y-137116520D01*
X132706903Y-136968855D01*
X132658299Y-136808630D01*
X132641888Y-136642000D01*
X132658299Y-136475370D01*
X132706903Y-136315145D01*
X132785831Y-136167480D01*
X132892051Y-136038051D01*
X133021480Y-135931831D01*
X133169145Y-135852903D01*
X133329370Y-135804299D01*
X133454248Y-135792000D01*
X133537752Y-135792000D01*
X133662630Y-135804299D01*
X133662630Y-135804299D01*
G37*
G36*
X101246521Y-135014586D02*
X101410309Y-135082429D01*
X101557720Y-135180926D01*
X101683074Y-135306280D01*
X101781571Y-135453691D01*
X101849414Y-135617479D01*
X101884000Y-135791356D01*
X101884000Y-135968644D01*
X101849414Y-136142521D01*
X101781571Y-136306309D01*
X101683074Y-136453720D01*
X101557720Y-136579074D01*
X101410309Y-136677571D01*
X101246521Y-136745414D01*
X101072644Y-136780000D01*
X100895356Y-136780000D01*
X100721479Y-136745414D01*
X100557691Y-136677571D01*
X100410280Y-136579074D01*
X100284926Y-136453720D01*
X100186429Y-136306309D01*
X100118586Y-136142521D01*
X100084000Y-135968644D01*
X100084000Y-135791356D01*
X100118586Y-135617479D01*
X100186429Y-135453691D01*
X100284926Y-135306280D01*
X100410280Y-135180926D01*
X100557691Y-135082429D01*
X100721479Y-135014586D01*
X100895356Y-134980000D01*
X101072644Y-134980000D01*
X101246521Y-135014586D01*
X101246521Y-135014586D01*
G37*
G36*
X116486521Y-135014586D02*
X116650309Y-135082429D01*
X116797720Y-135180926D01*
X116923074Y-135306280D01*
X117021571Y-135453691D01*
X117089414Y-135617479D01*
X117124000Y-135791356D01*
X117124000Y-135968644D01*
X117089414Y-136142521D01*
X117021571Y-136306309D01*
X116923074Y-136453720D01*
X116797720Y-136579074D01*
X116650309Y-136677571D01*
X116486521Y-136745414D01*
X116312644Y-136780000D01*
X116135356Y-136780000D01*
X115961479Y-136745414D01*
X115797691Y-136677571D01*
X115650280Y-136579074D01*
X115524926Y-136453720D01*
X115426429Y-136306309D01*
X115358586Y-136142521D01*
X115324000Y-135968644D01*
X115324000Y-135791356D01*
X115358586Y-135617479D01*
X115426429Y-135453691D01*
X115524926Y-135306280D01*
X115650280Y-135180926D01*
X115797691Y-135082429D01*
X115961479Y-135014586D01*
X116135356Y-134980000D01*
X116312644Y-134980000D01*
X116486521Y-135014586D01*
X116486521Y-135014586D01*
G37*
G36*
X127283224Y-135190128D02*
X127415175Y-135230155D01*
X127536781Y-135295155D01*
X127643370Y-135382630D01*
X127730845Y-135489219D01*
X127795845Y-135610825D01*
X127835872Y-135742776D01*
X127849387Y-135880000D01*
X127835872Y-136017224D01*
X127795845Y-136149175D01*
X127730845Y-136270781D01*
X127643370Y-136377370D01*
X127536781Y-136464845D01*
X127415175Y-136529845D01*
X127283224Y-136569872D01*
X127180390Y-136580000D01*
X127111610Y-136580000D01*
X127008776Y-136569872D01*
X126876825Y-136529845D01*
X126755219Y-136464845D01*
X126648630Y-136377370D01*
X126561155Y-136270781D01*
X126496155Y-136149175D01*
X126456128Y-136017224D01*
X126442613Y-135880000D01*
X126456128Y-135742776D01*
X126496155Y-135610825D01*
X126561155Y-135489219D01*
X126648630Y-135382630D01*
X126755219Y-135295155D01*
X126876825Y-135230155D01*
X127008776Y-135190128D01*
X127111610Y-135180000D01*
X127180390Y-135180000D01*
X127283224Y-135190128D01*
X127283224Y-135190128D01*
G37*
G36*
X119730183Y-135206900D02*
X119857574Y-135259668D01*
X119972224Y-135336274D01*
X120069726Y-135433776D01*
X120106771Y-135489219D01*
X120146332Y-135548426D01*
X120199100Y-135675817D01*
X120226000Y-135811055D01*
X120226000Y-135948945D01*
X120199100Y-136084183D01*
X120164596Y-136167481D01*
X120146332Y-136211574D01*
X120069726Y-136326224D01*
X119972224Y-136423726D01*
X119894931Y-136475371D01*
X119857574Y-136500332D01*
X119730183Y-136553100D01*
X119594945Y-136580000D01*
X119457055Y-136580000D01*
X119321817Y-136553100D01*
X119194426Y-136500332D01*
X119157069Y-136475371D01*
X119079776Y-136423726D01*
X118982274Y-136326224D01*
X118905668Y-136211574D01*
X118887404Y-136167481D01*
X118852900Y-136084183D01*
X118826000Y-135948945D01*
X118826000Y-135811055D01*
X118852900Y-135675817D01*
X118905668Y-135548426D01*
X118945229Y-135489219D01*
X118982274Y-135433776D01*
X119079776Y-135336274D01*
X119194426Y-135259668D01*
X119321817Y-135206900D01*
X119457055Y-135180000D01*
X119594945Y-135180000D01*
X119730183Y-135206900D01*
X119730183Y-135206900D01*
G37*
G36*
X95762913Y-134157596D02*
X95762916Y-134157597D01*
X95762917Y-134157597D01*
X95861880Y-134187617D01*
X95953086Y-134236367D01*
X96033027Y-134301973D01*
X96033028Y-134301975D01*
X96033030Y-134301976D01*
X96082231Y-134361929D01*
X96098633Y-134381914D01*
X96147383Y-134473119D01*
X96177270Y-134571644D01*
X96177404Y-134572086D01*
X96185000Y-134649208D01*
X96185000Y-135150791D01*
X96177404Y-135227914D01*
X96177403Y-135227917D01*
X96177403Y-135227918D01*
X96147383Y-135326881D01*
X96098633Y-135418086D01*
X96033027Y-135498027D01*
X95953086Y-135563633D01*
X95873660Y-135606087D01*
X95864802Y-135610822D01*
X95861881Y-135612383D01*
X95762918Y-135642403D01*
X95762917Y-135642403D01*
X95762914Y-135642404D01*
X95660000Y-135652540D01*
X95557087Y-135642404D01*
X95557084Y-135642403D01*
X95557083Y-135642403D01*
X95458120Y-135612383D01*
X95455200Y-135610822D01*
X95446341Y-135606087D01*
X95366915Y-135563633D01*
X95286974Y-135498027D01*
X95234244Y-135433776D01*
X95221366Y-135418084D01*
X95172618Y-135326883D01*
X95144618Y-135234580D01*
X95135240Y-135211941D01*
X95121626Y-135191567D01*
X95104299Y-135174240D01*
X95083925Y-135160626D01*
X95061286Y-135151248D01*
X95037252Y-135146468D01*
X95012748Y-135146468D01*
X94988714Y-135151248D01*
X94966075Y-135160626D01*
X94945701Y-135174240D01*
X94928374Y-135191567D01*
X94914760Y-135211941D01*
X94905382Y-135234579D01*
X94877383Y-135326881D01*
X94828633Y-135418086D01*
X94763027Y-135498027D01*
X94683086Y-135563633D01*
X94603660Y-135606087D01*
X94594802Y-135610822D01*
X94591881Y-135612383D01*
X94492918Y-135642403D01*
X94492917Y-135642403D01*
X94492914Y-135642404D01*
X94390000Y-135652540D01*
X94287087Y-135642404D01*
X94287084Y-135642403D01*
X94287083Y-135642403D01*
X94188120Y-135612383D01*
X94185200Y-135610822D01*
X94176341Y-135606087D01*
X94096915Y-135563633D01*
X94016974Y-135498027D01*
X93964244Y-135433776D01*
X93951366Y-135418084D01*
X93902617Y-135326882D01*
X93889618Y-135284029D01*
X93880240Y-135261389D01*
X93866626Y-135241015D01*
X93849299Y-135223688D01*
X93828925Y-135210074D01*
X93806286Y-135200696D01*
X93782252Y-135195916D01*
X93757748Y-135195916D01*
X93733715Y-135200696D01*
X93711075Y-135210074D01*
X93690701Y-135223688D01*
X93673374Y-135241015D01*
X93659760Y-135261389D01*
X93650382Y-135284028D01*
X93645602Y-135308062D01*
X93645000Y-135320314D01*
X93645000Y-135650000D01*
X92595000Y-135650000D01*
X92595000Y-134150000D01*
X93645000Y-134150000D01*
X93645000Y-134479687D01*
X93647402Y-134504073D01*
X93654515Y-134527522D01*
X93666066Y-134549133D01*
X93681612Y-134568075D01*
X93700554Y-134583621D01*
X93722165Y-134595172D01*
X93745614Y-134602285D01*
X93770000Y-134604687D01*
X93794386Y-134602285D01*
X93817835Y-134595172D01*
X93839446Y-134583621D01*
X93858388Y-134568075D01*
X93873934Y-134549133D01*
X93885485Y-134527522D01*
X93889618Y-134515972D01*
X93902617Y-134473119D01*
X93944717Y-134394356D01*
X93951367Y-134381914D01*
X94016973Y-134301973D01*
X94016975Y-134301972D01*
X94016976Y-134301970D01*
X94096913Y-134236368D01*
X94096912Y-134236368D01*
X94096914Y-134236367D01*
X94188119Y-134187617D01*
X94287082Y-134157597D01*
X94287083Y-134157597D01*
X94287086Y-134157596D01*
X94390000Y-134147460D01*
X94492913Y-134157596D01*
X94492916Y-134157597D01*
X94492917Y-134157597D01*
X94591880Y-134187617D01*
X94683086Y-134236367D01*
X94763027Y-134301973D01*
X94763028Y-134301975D01*
X94763030Y-134301976D01*
X94812231Y-134361929D01*
X94828633Y-134381914D01*
X94877383Y-134473119D01*
X94905382Y-134565420D01*
X94914760Y-134588059D01*
X94928374Y-134608433D01*
X94945701Y-134625760D01*
X94966075Y-134639374D01*
X94988714Y-134648752D01*
X95012748Y-134653532D01*
X95037252Y-134653532D01*
X95061286Y-134648752D01*
X95083925Y-134639374D01*
X95104299Y-134625760D01*
X95121626Y-134608433D01*
X95135240Y-134588059D01*
X95144617Y-134565420D01*
X95172616Y-134473122D01*
X95214717Y-134394356D01*
X95221367Y-134381914D01*
X95286973Y-134301973D01*
X95286975Y-134301972D01*
X95286976Y-134301970D01*
X95366913Y-134236368D01*
X95366912Y-134236368D01*
X95366914Y-134236367D01*
X95458119Y-134187617D01*
X95557082Y-134157597D01*
X95557083Y-134157597D01*
X95557086Y-134157596D01*
X95660000Y-134147460D01*
X95762913Y-134157596D01*
X95762913Y-134157596D01*
G37*
G36*
X104167521Y-133617586D02*
X104331309Y-133685429D01*
X104478720Y-133783926D01*
X104604074Y-133909280D01*
X104702571Y-134056691D01*
X104770414Y-134220479D01*
X104805000Y-134394356D01*
X104805000Y-134571644D01*
X104770414Y-134745521D01*
X104702571Y-134909309D01*
X104604074Y-135056720D01*
X104478720Y-135182074D01*
X104331309Y-135280571D01*
X104167521Y-135348414D01*
X103993644Y-135383000D01*
X103816356Y-135383000D01*
X103642479Y-135348414D01*
X103478691Y-135280571D01*
X103331280Y-135182074D01*
X103205926Y-135056720D01*
X103107429Y-134909309D01*
X103039586Y-134745521D01*
X103005000Y-134571644D01*
X103005000Y-134394356D01*
X103039586Y-134220479D01*
X103107429Y-134056691D01*
X103205926Y-133909280D01*
X103331280Y-133783926D01*
X103478691Y-133685429D01*
X103642479Y-133617586D01*
X103816356Y-133583000D01*
X103993644Y-133583000D01*
X104167521Y-133617586D01*
X104167521Y-133617586D01*
G37*
G36*
X133662630Y-133264299D02*
X133822855Y-133312903D01*
X133970520Y-133391831D01*
X134099949Y-133498051D01*
X134206169Y-133627480D01*
X134285097Y-133775145D01*
X134333701Y-133935370D01*
X134350112Y-134102000D01*
X134333701Y-134268630D01*
X134285097Y-134428855D01*
X134206169Y-134576520D01*
X134099949Y-134705949D01*
X133970520Y-134812169D01*
X133822855Y-134891097D01*
X133662630Y-134939701D01*
X133537752Y-134952000D01*
X133454248Y-134952000D01*
X133329370Y-134939701D01*
X133169145Y-134891097D01*
X133021480Y-134812169D01*
X132892051Y-134705949D01*
X132785831Y-134576520D01*
X132706903Y-134428855D01*
X132658299Y-134268630D01*
X132641888Y-134102000D01*
X132658299Y-133935370D01*
X132706903Y-133775145D01*
X132785831Y-133627480D01*
X132892051Y-133498051D01*
X133021480Y-133391831D01*
X133169145Y-133312903D01*
X133329370Y-133264299D01*
X133454248Y-133252000D01*
X133537752Y-133252000D01*
X133662630Y-133264299D01*
X133662630Y-133264299D01*
G37*
G36*
X88866000Y-134778000D02*
X86066000Y-134778000D01*
X86066000Y-131978000D01*
X88866000Y-131978000D01*
X88866000Y-134778000D01*
X88866000Y-134778000D01*
G37*
G36*
X85466000Y-134778000D02*
X82666000Y-134778000D01*
X82666000Y-131978000D01*
X85466000Y-131978000D01*
X85466000Y-134778000D01*
X85466000Y-134778000D01*
G37*
G36*
X77866000Y-134778000D02*
X75066000Y-134778000D01*
X75066000Y-131978000D01*
X77866000Y-131978000D01*
X77866000Y-134778000D01*
X77866000Y-134778000D01*
G37*
G36*
X74366000Y-134778000D02*
X71566000Y-134778000D01*
X71566000Y-131978000D01*
X74366000Y-131978000D01*
X74366000Y-134778000D01*
X74366000Y-134778000D01*
G37*
G36*
X116486521Y-132474586D02*
X116650309Y-132542429D01*
X116797720Y-132640926D01*
X116923074Y-132766280D01*
X117021571Y-132913691D01*
X117089414Y-133077479D01*
X117124000Y-133251356D01*
X117124000Y-133428644D01*
X117089414Y-133602521D01*
X117021571Y-133766309D01*
X116923074Y-133913720D01*
X116797720Y-134039074D01*
X116650309Y-134137571D01*
X116486521Y-134205414D01*
X116312644Y-134240000D01*
X116135356Y-134240000D01*
X115961479Y-134205414D01*
X115797691Y-134137571D01*
X115650280Y-134039074D01*
X115524926Y-133913720D01*
X115426429Y-133766309D01*
X115358586Y-133602521D01*
X115324000Y-133428644D01*
X115324000Y-133251356D01*
X115358586Y-133077479D01*
X115426429Y-132913691D01*
X115524926Y-132766280D01*
X115650280Y-132640926D01*
X115797691Y-132542429D01*
X115961479Y-132474586D01*
X116135356Y-132440000D01*
X116312644Y-132440000D01*
X116486521Y-132474586D01*
X116486521Y-132474586D01*
G37*
G36*
X101246521Y-132474586D02*
X101410309Y-132542429D01*
X101557720Y-132640926D01*
X101683074Y-132766280D01*
X101781571Y-132913691D01*
X101849414Y-133077479D01*
X101884000Y-133251356D01*
X101884000Y-133428644D01*
X101849414Y-133602521D01*
X101781571Y-133766309D01*
X101683074Y-133913720D01*
X101557720Y-134039074D01*
X101410309Y-134137571D01*
X101246521Y-134205414D01*
X101072644Y-134240000D01*
X100895356Y-134240000D01*
X100721479Y-134205414D01*
X100557691Y-134137571D01*
X100410280Y-134039074D01*
X100284926Y-133913720D01*
X100186429Y-133766309D01*
X100118586Y-133602521D01*
X100084000Y-133428644D01*
X100084000Y-133251356D01*
X100118586Y-133077479D01*
X100186429Y-132913691D01*
X100284926Y-132766280D01*
X100410280Y-132640926D01*
X100557691Y-132542429D01*
X100721479Y-132474586D01*
X100895356Y-132440000D01*
X101072644Y-132440000D01*
X101246521Y-132474586D01*
X101246521Y-132474586D01*
G37*
G36*
X127283224Y-132650128D02*
X127415175Y-132690155D01*
X127536781Y-132755155D01*
X127643370Y-132842630D01*
X127730845Y-132949219D01*
X127795845Y-133070825D01*
X127835872Y-133202776D01*
X127849387Y-133340000D01*
X127835872Y-133477224D01*
X127795845Y-133609175D01*
X127730845Y-133730781D01*
X127643370Y-133837370D01*
X127536781Y-133924845D01*
X127415175Y-133989845D01*
X127283224Y-134029872D01*
X127180390Y-134040000D01*
X127111610Y-134040000D01*
X127008776Y-134029872D01*
X126876825Y-133989845D01*
X126755219Y-133924845D01*
X126648630Y-133837370D01*
X126561155Y-133730781D01*
X126496155Y-133609175D01*
X126456128Y-133477224D01*
X126442613Y-133340000D01*
X126456128Y-133202776D01*
X126496155Y-133070825D01*
X126561155Y-132949219D01*
X126648630Y-132842630D01*
X126755219Y-132755155D01*
X126876825Y-132690155D01*
X127008776Y-132650128D01*
X127111610Y-132640000D01*
X127180390Y-132640000D01*
X127283224Y-132650128D01*
X127283224Y-132650128D01*
G37*
G36*
X119730183Y-132666900D02*
X119857574Y-132719668D01*
X119972224Y-132796274D01*
X120069726Y-132893776D01*
X120106771Y-132949219D01*
X120146332Y-133008426D01*
X120199100Y-133135817D01*
X120226000Y-133271055D01*
X120226000Y-133408945D01*
X120199100Y-133544183D01*
X120164596Y-133627481D01*
X120146332Y-133671574D01*
X120069726Y-133786224D01*
X119972224Y-133883726D01*
X119894931Y-133935371D01*
X119857574Y-133960332D01*
X119730183Y-134013100D01*
X119594945Y-134040000D01*
X119457055Y-134040000D01*
X119321817Y-134013100D01*
X119194426Y-133960332D01*
X119157069Y-133935371D01*
X119079776Y-133883726D01*
X118982274Y-133786224D01*
X118905668Y-133671574D01*
X118887404Y-133627481D01*
X118852900Y-133544183D01*
X118826000Y-133408945D01*
X118826000Y-133271055D01*
X118852900Y-133135817D01*
X118905668Y-133008426D01*
X118945229Y-132949219D01*
X118982274Y-132893776D01*
X119079776Y-132796274D01*
X119194426Y-132719668D01*
X119321817Y-132666900D01*
X119457055Y-132640000D01*
X119594945Y-132640000D01*
X119730183Y-132666900D01*
X119730183Y-132666900D01*
G37*
G36*
X104167521Y-131077586D02*
X104331309Y-131145429D01*
X104478720Y-131243926D01*
X104604074Y-131369280D01*
X104702571Y-131516691D01*
X104770414Y-131680479D01*
X104805000Y-131854356D01*
X104805000Y-132031644D01*
X104770414Y-132205521D01*
X104702571Y-132369309D01*
X104604074Y-132516720D01*
X104478720Y-132642074D01*
X104331309Y-132740571D01*
X104167521Y-132808414D01*
X103993644Y-132843000D01*
X103816356Y-132843000D01*
X103642479Y-132808414D01*
X103478691Y-132740571D01*
X103331280Y-132642074D01*
X103205926Y-132516720D01*
X103107429Y-132369309D01*
X103039586Y-132205521D01*
X103005000Y-132031644D01*
X103005000Y-131854356D01*
X103039586Y-131680479D01*
X103107429Y-131516691D01*
X103205926Y-131369280D01*
X103331280Y-131243926D01*
X103478691Y-131145429D01*
X103642479Y-131077586D01*
X103816356Y-131043000D01*
X103993644Y-131043000D01*
X104167521Y-131077586D01*
X104167521Y-131077586D01*
G37*
G36*
X133662630Y-130724299D02*
X133822855Y-130772903D01*
X133970520Y-130851831D01*
X134099949Y-130958051D01*
X134206169Y-131087480D01*
X134285097Y-131235145D01*
X134333701Y-131395370D01*
X134350112Y-131562000D01*
X134333701Y-131728630D01*
X134285097Y-131888855D01*
X134206169Y-132036520D01*
X134099949Y-132165949D01*
X133970520Y-132272169D01*
X133822855Y-132351097D01*
X133662630Y-132399701D01*
X133537752Y-132412000D01*
X133454248Y-132412000D01*
X133329370Y-132399701D01*
X133169145Y-132351097D01*
X133021480Y-132272169D01*
X132892051Y-132165949D01*
X132785831Y-132036520D01*
X132706903Y-131888855D01*
X132658299Y-131728630D01*
X132641888Y-131562000D01*
X132658299Y-131395370D01*
X132706903Y-131235145D01*
X132785831Y-131087480D01*
X132892051Y-130958051D01*
X133021480Y-130851831D01*
X133169145Y-130772903D01*
X133329370Y-130724299D01*
X133454248Y-130712000D01*
X133537752Y-130712000D01*
X133662630Y-130724299D01*
X133662630Y-130724299D01*
G37*
G36*
X101246521Y-129934586D02*
X101410309Y-130002429D01*
X101557720Y-130100926D01*
X101683074Y-130226280D01*
X101781571Y-130373691D01*
X101849414Y-130537479D01*
X101884000Y-130711356D01*
X101884000Y-130888644D01*
X101849414Y-131062521D01*
X101781571Y-131226309D01*
X101683074Y-131373720D01*
X101557720Y-131499074D01*
X101410309Y-131597571D01*
X101246521Y-131665414D01*
X101072644Y-131700000D01*
X100895356Y-131700000D01*
X100721479Y-131665414D01*
X100557691Y-131597571D01*
X100410280Y-131499074D01*
X100284926Y-131373720D01*
X100186429Y-131226309D01*
X100118586Y-131062521D01*
X100084000Y-130888644D01*
X100084000Y-130711356D01*
X100118586Y-130537479D01*
X100186429Y-130373691D01*
X100284926Y-130226280D01*
X100410280Y-130100926D01*
X100557691Y-130002429D01*
X100721479Y-129934586D01*
X100895356Y-129900000D01*
X101072644Y-129900000D01*
X101246521Y-129934586D01*
X101246521Y-129934586D01*
G37*
G36*
X116486521Y-129934586D02*
X116650309Y-130002429D01*
X116797720Y-130100926D01*
X116923074Y-130226280D01*
X117021571Y-130373691D01*
X117089414Y-130537479D01*
X117124000Y-130711356D01*
X117124000Y-130888644D01*
X117089414Y-131062521D01*
X117021571Y-131226309D01*
X116923074Y-131373720D01*
X116797720Y-131499074D01*
X116650309Y-131597571D01*
X116486521Y-131665414D01*
X116312644Y-131700000D01*
X116135356Y-131700000D01*
X115961479Y-131665414D01*
X115797691Y-131597571D01*
X115650280Y-131499074D01*
X115524926Y-131373720D01*
X115426429Y-131226309D01*
X115358586Y-131062521D01*
X115324000Y-130888644D01*
X115324000Y-130711356D01*
X115358586Y-130537479D01*
X115426429Y-130373691D01*
X115524926Y-130226280D01*
X115650280Y-130100926D01*
X115797691Y-130002429D01*
X115961479Y-129934586D01*
X116135356Y-129900000D01*
X116312644Y-129900000D01*
X116486521Y-129934586D01*
X116486521Y-129934586D01*
G37*
G36*
X119730183Y-130126900D02*
X119857574Y-130179668D01*
X119972224Y-130256274D01*
X120069726Y-130353776D01*
X120106771Y-130409219D01*
X120146332Y-130468426D01*
X120199100Y-130595817D01*
X120226000Y-130731055D01*
X120226000Y-130868945D01*
X120199100Y-131004183D01*
X120164596Y-131087481D01*
X120146332Y-131131574D01*
X120069726Y-131246224D01*
X119972224Y-131343726D01*
X119894931Y-131395371D01*
X119857574Y-131420332D01*
X119730183Y-131473100D01*
X119594945Y-131500000D01*
X119457055Y-131500000D01*
X119321817Y-131473100D01*
X119194426Y-131420332D01*
X119157069Y-131395371D01*
X119079776Y-131343726D01*
X118982274Y-131246224D01*
X118905668Y-131131574D01*
X118887404Y-131087481D01*
X118852900Y-131004183D01*
X118826000Y-130868945D01*
X118826000Y-130731055D01*
X118852900Y-130595817D01*
X118905668Y-130468426D01*
X118945229Y-130409219D01*
X118982274Y-130353776D01*
X119079776Y-130256274D01*
X119194426Y-130179668D01*
X119321817Y-130126900D01*
X119457055Y-130100000D01*
X119594945Y-130100000D01*
X119730183Y-130126900D01*
X119730183Y-130126900D01*
G37*
G36*
X127283224Y-130110128D02*
X127415175Y-130150155D01*
X127536781Y-130215155D01*
X127643370Y-130302630D01*
X127730845Y-130409219D01*
X127795845Y-130530825D01*
X127835872Y-130662776D01*
X127849387Y-130800000D01*
X127835872Y-130937224D01*
X127795845Y-131069175D01*
X127730845Y-131190781D01*
X127643370Y-131297370D01*
X127536781Y-131384845D01*
X127415175Y-131449845D01*
X127283224Y-131489872D01*
X127180390Y-131500000D01*
X127111610Y-131500000D01*
X127008776Y-131489872D01*
X126876825Y-131449845D01*
X126755219Y-131384845D01*
X126648630Y-131297370D01*
X126561155Y-131190781D01*
X126496155Y-131069175D01*
X126456128Y-130937224D01*
X126442613Y-130800000D01*
X126456128Y-130662776D01*
X126496155Y-130530825D01*
X126561155Y-130409219D01*
X126648630Y-130302630D01*
X126755219Y-130215155D01*
X126876825Y-130150155D01*
X127008776Y-130110128D01*
X127111610Y-130100000D01*
X127180390Y-130100000D01*
X127283224Y-130110128D01*
X127283224Y-130110128D01*
G37*
G36*
X133662630Y-128184299D02*
X133822855Y-128232903D01*
X133970520Y-128311831D01*
X134099949Y-128418051D01*
X134206169Y-128547480D01*
X134285097Y-128695145D01*
X134333701Y-128855370D01*
X134350112Y-129022000D01*
X134333701Y-129188630D01*
X134285097Y-129348855D01*
X134206169Y-129496520D01*
X134099949Y-129625949D01*
X133970520Y-129732169D01*
X133822855Y-129811097D01*
X133662630Y-129859701D01*
X133537752Y-129872000D01*
X133454248Y-129872000D01*
X133329370Y-129859701D01*
X133169145Y-129811097D01*
X133021480Y-129732169D01*
X132892051Y-129625949D01*
X132785831Y-129496520D01*
X132706903Y-129348855D01*
X132658299Y-129188630D01*
X132641888Y-129022000D01*
X132658299Y-128855370D01*
X132706903Y-128695145D01*
X132785831Y-128547480D01*
X132892051Y-128418051D01*
X133021480Y-128311831D01*
X133169145Y-128232903D01*
X133329370Y-128184299D01*
X133454248Y-128172000D01*
X133537752Y-128172000D01*
X133662630Y-128184299D01*
X133662630Y-128184299D01*
G37*
G36*
X116486521Y-127394586D02*
X116650309Y-127462429D01*
X116797720Y-127560926D01*
X116923074Y-127686280D01*
X117021571Y-127833691D01*
X117089414Y-127997479D01*
X117124000Y-128171356D01*
X117124000Y-128348644D01*
X117089414Y-128522521D01*
X117021571Y-128686309D01*
X116923074Y-128833720D01*
X116797720Y-128959074D01*
X116650309Y-129057571D01*
X116486521Y-129125414D01*
X116312644Y-129160000D01*
X116135356Y-129160000D01*
X115961479Y-129125414D01*
X115797691Y-129057571D01*
X115650280Y-128959074D01*
X115524926Y-128833720D01*
X115426429Y-128686309D01*
X115358586Y-128522521D01*
X115324000Y-128348644D01*
X115324000Y-128171356D01*
X115358586Y-127997479D01*
X115426429Y-127833691D01*
X115524926Y-127686280D01*
X115650280Y-127560926D01*
X115797691Y-127462429D01*
X115961479Y-127394586D01*
X116135356Y-127360000D01*
X116312644Y-127360000D01*
X116486521Y-127394586D01*
X116486521Y-127394586D01*
G37*
G36*
X101246521Y-127394586D02*
X101410309Y-127462429D01*
X101557720Y-127560926D01*
X101683074Y-127686280D01*
X101781571Y-127833691D01*
X101849414Y-127997479D01*
X101884000Y-128171356D01*
X101884000Y-128348644D01*
X101849414Y-128522521D01*
X101781571Y-128686309D01*
X101683074Y-128833720D01*
X101557720Y-128959074D01*
X101410309Y-129057571D01*
X101246521Y-129125414D01*
X101072644Y-129160000D01*
X100895356Y-129160000D01*
X100721479Y-129125414D01*
X100557691Y-129057571D01*
X100410280Y-128959074D01*
X100284926Y-128833720D01*
X100186429Y-128686309D01*
X100118586Y-128522521D01*
X100084000Y-128348644D01*
X100084000Y-128171356D01*
X100118586Y-127997479D01*
X100186429Y-127833691D01*
X100284926Y-127686280D01*
X100410280Y-127560926D01*
X100557691Y-127462429D01*
X100721479Y-127394586D01*
X100895356Y-127360000D01*
X101072644Y-127360000D01*
X101246521Y-127394586D01*
X101246521Y-127394586D01*
G37*
G36*
X96340000Y-128370000D02*
X94740000Y-128370000D01*
X94740000Y-126770000D01*
X96340000Y-126770000D01*
X96340000Y-128370000D01*
X96340000Y-128370000D01*
G37*
G36*
X93273352Y-126800743D02*
X93418941Y-126861048D01*
X93549973Y-126948601D01*
X93661399Y-127060027D01*
X93748952Y-127191059D01*
X93809257Y-127336648D01*
X93840000Y-127491205D01*
X93840000Y-127648795D01*
X93809257Y-127803352D01*
X93748952Y-127948941D01*
X93661399Y-128079973D01*
X93549973Y-128191399D01*
X93418941Y-128278952D01*
X93273352Y-128339257D01*
X93118795Y-128370000D01*
X92961205Y-128370000D01*
X92806648Y-128339257D01*
X92661059Y-128278952D01*
X92530027Y-128191399D01*
X92418601Y-128079973D01*
X92331048Y-127948941D01*
X92270743Y-127803352D01*
X92240000Y-127648795D01*
X92240000Y-127491205D01*
X92270743Y-127336648D01*
X92331048Y-127191059D01*
X92418601Y-127060027D01*
X92530027Y-126948601D01*
X92661059Y-126861048D01*
X92806648Y-126800743D01*
X92961205Y-126770000D01*
X93118795Y-126770000D01*
X93273352Y-126800743D01*
X93273352Y-126800743D01*
G37*
G36*
X125982913Y-125887596D02*
X125982916Y-125887597D01*
X125982917Y-125887597D01*
X126081880Y-125917617D01*
X126173086Y-125966367D01*
X126253027Y-126031973D01*
X126253028Y-126031975D01*
X126253030Y-126031976D01*
X126302232Y-126091929D01*
X126318633Y-126111914D01*
X126367383Y-126203119D01*
X126394866Y-126293720D01*
X126397404Y-126302086D01*
X126405000Y-126379208D01*
X126405000Y-126880791D01*
X126397404Y-126957914D01*
X126397403Y-126957917D01*
X126397403Y-126957918D01*
X126367383Y-127056881D01*
X126318633Y-127148086D01*
X126253027Y-127228027D01*
X126173086Y-127293633D01*
X126081881Y-127342383D01*
X125982918Y-127372403D01*
X125982917Y-127372403D01*
X125982914Y-127372404D01*
X125880000Y-127382540D01*
X125777087Y-127372404D01*
X125777084Y-127372403D01*
X125777083Y-127372403D01*
X125678120Y-127342383D01*
X125586915Y-127293633D01*
X125506974Y-127228027D01*
X125474171Y-127188056D01*
X125441366Y-127148084D01*
X125392618Y-127056883D01*
X125364618Y-126964580D01*
X125355240Y-126941941D01*
X125341626Y-126921567D01*
X125324299Y-126904240D01*
X125303925Y-126890626D01*
X125281286Y-126881248D01*
X125257252Y-126876468D01*
X125232748Y-126876468D01*
X125208714Y-126881248D01*
X125186075Y-126890626D01*
X125165701Y-126904240D01*
X125148374Y-126921567D01*
X125134760Y-126941941D01*
X125125382Y-126964579D01*
X125097383Y-127056881D01*
X125048633Y-127148086D01*
X124983027Y-127228027D01*
X124903086Y-127293633D01*
X124811881Y-127342383D01*
X124712918Y-127372403D01*
X124712917Y-127372403D01*
X124712914Y-127372404D01*
X124610000Y-127382540D01*
X124507087Y-127372404D01*
X124507084Y-127372403D01*
X124507083Y-127372403D01*
X124408120Y-127342383D01*
X124316915Y-127293633D01*
X124236974Y-127228027D01*
X124204171Y-127188056D01*
X124171366Y-127148084D01*
X124122617Y-127056882D01*
X124109618Y-127014029D01*
X124100240Y-126991389D01*
X124086626Y-126971015D01*
X124069299Y-126953688D01*
X124048925Y-126940074D01*
X124026286Y-126930696D01*
X124002252Y-126925916D01*
X123977748Y-126925916D01*
X123953715Y-126930696D01*
X123931075Y-126940074D01*
X123910701Y-126953688D01*
X123893374Y-126971015D01*
X123879760Y-126991389D01*
X123870382Y-127014028D01*
X123865602Y-127038062D01*
X123865000Y-127050314D01*
X123865000Y-127380000D01*
X122815000Y-127380000D01*
X122815000Y-125880000D01*
X123865000Y-125880000D01*
X123865000Y-126209687D01*
X123867402Y-126234073D01*
X123874515Y-126257522D01*
X123886066Y-126279133D01*
X123901612Y-126298075D01*
X123920554Y-126313621D01*
X123942165Y-126325172D01*
X123965614Y-126332285D01*
X123990000Y-126334687D01*
X124014386Y-126332285D01*
X124037835Y-126325172D01*
X124059446Y-126313621D01*
X124078388Y-126298075D01*
X124093934Y-126279133D01*
X124105485Y-126257522D01*
X124109618Y-126245972D01*
X124122617Y-126203119D01*
X124152983Y-126146309D01*
X124171367Y-126111914D01*
X124236973Y-126031973D01*
X124236975Y-126031972D01*
X124236976Y-126031970D01*
X124316913Y-125966368D01*
X124316912Y-125966368D01*
X124316914Y-125966367D01*
X124408119Y-125917617D01*
X124507082Y-125887597D01*
X124507083Y-125887597D01*
X124507086Y-125887596D01*
X124610000Y-125877460D01*
X124712913Y-125887596D01*
X124712916Y-125887597D01*
X124712917Y-125887597D01*
X124811880Y-125917617D01*
X124903086Y-125966367D01*
X124983027Y-126031973D01*
X124983028Y-126031975D01*
X124983030Y-126031976D01*
X125032232Y-126091929D01*
X125048633Y-126111914D01*
X125097383Y-126203119D01*
X125124866Y-126293720D01*
X125125382Y-126295420D01*
X125134760Y-126318059D01*
X125148374Y-126338433D01*
X125165701Y-126355760D01*
X125186075Y-126369374D01*
X125208714Y-126378752D01*
X125232748Y-126383532D01*
X125257252Y-126383532D01*
X125281286Y-126378752D01*
X125303925Y-126369374D01*
X125324299Y-126355760D01*
X125341626Y-126338433D01*
X125355240Y-126318059D01*
X125364617Y-126295420D01*
X125392616Y-126203122D01*
X125392619Y-126203117D01*
X125441367Y-126111914D01*
X125506973Y-126031973D01*
X125506975Y-126031972D01*
X125506976Y-126031970D01*
X125586913Y-125966368D01*
X125586912Y-125966368D01*
X125586914Y-125966367D01*
X125678119Y-125917617D01*
X125777082Y-125887597D01*
X125777083Y-125887597D01*
X125777086Y-125887596D01*
X125880000Y-125877460D01*
X125982913Y-125887596D01*
X125982913Y-125887596D01*
G37*
G36*
X134346000Y-127332000D02*
X132646000Y-127332000D01*
X132646000Y-125632000D01*
X134346000Y-125632000D01*
X134346000Y-127332000D01*
X134346000Y-127332000D01*
G37*
G36*
X116486521Y-124854586D02*
X116650309Y-124922429D01*
X116797720Y-125020926D01*
X116923074Y-125146280D01*
X117021571Y-125293691D01*
X117089414Y-125457479D01*
X117124000Y-125631356D01*
X117124000Y-125808644D01*
X117089414Y-125982521D01*
X117021571Y-126146309D01*
X116923074Y-126293720D01*
X116797720Y-126419074D01*
X116650309Y-126517571D01*
X116486521Y-126585414D01*
X116312644Y-126620000D01*
X116135356Y-126620000D01*
X115961479Y-126585414D01*
X115797691Y-126517571D01*
X115650280Y-126419074D01*
X115524926Y-126293720D01*
X115426429Y-126146309D01*
X115358586Y-125982521D01*
X115324000Y-125808644D01*
X115324000Y-125631356D01*
X115358586Y-125457479D01*
X115426429Y-125293691D01*
X115524926Y-125146280D01*
X115650280Y-125020926D01*
X115797691Y-124922429D01*
X115961479Y-124854586D01*
X116135356Y-124820000D01*
X116312644Y-124820000D01*
X116486521Y-124854586D01*
X116486521Y-124854586D01*
G37*
G36*
X101246521Y-124854586D02*
X101410309Y-124922429D01*
X101557720Y-125020926D01*
X101683074Y-125146280D01*
X101781571Y-125293691D01*
X101849414Y-125457479D01*
X101884000Y-125631356D01*
X101884000Y-125808644D01*
X101849414Y-125982521D01*
X101781571Y-126146309D01*
X101683074Y-126293720D01*
X101557720Y-126419074D01*
X101410309Y-126517571D01*
X101246521Y-126585414D01*
X101072644Y-126620000D01*
X100895356Y-126620000D01*
X100721479Y-126585414D01*
X100557691Y-126517571D01*
X100410280Y-126419074D01*
X100284926Y-126293720D01*
X100186429Y-126146309D01*
X100118586Y-125982521D01*
X100084000Y-125808644D01*
X100084000Y-125631356D01*
X100118586Y-125457479D01*
X100186429Y-125293691D01*
X100284926Y-125146280D01*
X100410280Y-125020926D01*
X100557691Y-124922429D01*
X100721479Y-124854586D01*
X100895356Y-124820000D01*
X101072644Y-124820000D01*
X101246521Y-124854586D01*
X101246521Y-124854586D01*
G37*
G36*
X82710935Y-114078429D02*
X82807534Y-114097644D01*
X83080517Y-114210717D01*
X83257964Y-114329284D01*
X83326197Y-114374876D01*
X83535124Y-114583803D01*
X83699284Y-114829485D01*
X83812356Y-115102467D01*
X83870000Y-115392261D01*
X83870000Y-115687739D01*
X83812356Y-115977533D01*
X83699284Y-116250515D01*
X83535124Y-116496197D01*
X83326197Y-116705124D01*
X83326194Y-116705126D01*
X83080517Y-116869283D01*
X82807534Y-116982356D01*
X82710935Y-117001571D01*
X82517739Y-117040000D01*
X82222261Y-117040000D01*
X82029065Y-117001571D01*
X81932466Y-116982356D01*
X81659483Y-116869283D01*
X81413806Y-116705126D01*
X81413803Y-116705124D01*
X81204876Y-116496197D01*
X81040716Y-116250515D01*
X80927644Y-115977533D01*
X80870000Y-115687739D01*
X80870000Y-115392261D01*
X80927644Y-115102467D01*
X81040716Y-114829485D01*
X81204876Y-114583803D01*
X81413803Y-114374876D01*
X81482036Y-114329284D01*
X81659483Y-114210717D01*
X81932466Y-114097644D01*
X82029065Y-114078429D01*
X82222261Y-114040000D01*
X82517739Y-114040000D01*
X82710935Y-114078429D01*
X82710935Y-114078429D01*
G37*
G36*
X128970935Y-114078429D02*
X129067534Y-114097644D01*
X129340517Y-114210717D01*
X129517964Y-114329284D01*
X129586197Y-114374876D01*
X129795124Y-114583803D01*
X129959284Y-114829485D01*
X130072356Y-115102467D01*
X130130000Y-115392261D01*
X130130000Y-115687739D01*
X130072356Y-115977533D01*
X129959284Y-116250515D01*
X129795124Y-116496197D01*
X129586197Y-116705124D01*
X129586194Y-116705126D01*
X129340517Y-116869283D01*
X129067534Y-116982356D01*
X128970935Y-117001571D01*
X128777739Y-117040000D01*
X128482261Y-117040000D01*
X128289065Y-117001571D01*
X128192466Y-116982356D01*
X127919483Y-116869283D01*
X127673806Y-116705126D01*
X127673803Y-116705124D01*
X127464876Y-116496197D01*
X127300716Y-116250515D01*
X127187644Y-115977533D01*
X127130000Y-115687739D01*
X127130000Y-115392261D01*
X127187644Y-115102467D01*
X127300716Y-114829485D01*
X127464876Y-114583803D01*
X127673803Y-114374876D01*
X127742036Y-114329284D01*
X127919483Y-114210717D01*
X128192466Y-114097644D01*
X128289065Y-114078429D01*
X128482261Y-114040000D01*
X128777739Y-114040000D01*
X128970935Y-114078429D01*
X128970935Y-114078429D01*
G37*
G36*
X136590935Y-111538429D02*
X136687534Y-111557644D01*
X136960517Y-111670717D01*
X137137964Y-111789284D01*
X137206197Y-111834876D01*
X137415124Y-112043803D01*
X137579284Y-112289485D01*
X137692356Y-112562467D01*
X137750000Y-112852261D01*
X137750000Y-113147739D01*
X137692356Y-113437533D01*
X137579284Y-113710515D01*
X137415124Y-113956197D01*
X137206197Y-114165124D01*
X137206194Y-114165126D01*
X136960517Y-114329283D01*
X136687534Y-114442356D01*
X136590935Y-114461571D01*
X136397739Y-114500000D01*
X136102261Y-114500000D01*
X135909065Y-114461571D01*
X135812466Y-114442356D01*
X135539483Y-114329283D01*
X135293806Y-114165126D01*
X135293803Y-114165124D01*
X135084876Y-113956197D01*
X134920716Y-113710515D01*
X134807644Y-113437533D01*
X134750000Y-113147739D01*
X134750000Y-112852261D01*
X134807644Y-112562467D01*
X134920716Y-112289485D01*
X135084876Y-112043803D01*
X135293803Y-111834876D01*
X135362036Y-111789284D01*
X135539483Y-111670717D01*
X135812466Y-111557644D01*
X135909065Y-111538429D01*
X136102261Y-111500000D01*
X136397739Y-111500000D01*
X136590935Y-111538429D01*
X136590935Y-111538429D01*
G37*
G36*
X75090935Y-111538429D02*
X75187534Y-111557644D01*
X75460517Y-111670717D01*
X75637964Y-111789284D01*
X75706197Y-111834876D01*
X75915124Y-112043803D01*
X76079284Y-112289485D01*
X76192356Y-112562467D01*
X76250000Y-112852261D01*
X76250000Y-113147739D01*
X76192356Y-113437533D01*
X76079284Y-113710515D01*
X75915124Y-113956197D01*
X75706197Y-114165124D01*
X75706194Y-114165126D01*
X75460517Y-114329283D01*
X75187534Y-114442356D01*
X75090935Y-114461571D01*
X74897739Y-114500000D01*
X74602261Y-114500000D01*
X74409065Y-114461571D01*
X74312466Y-114442356D01*
X74039483Y-114329283D01*
X73793806Y-114165126D01*
X73793803Y-114165124D01*
X73584876Y-113956197D01*
X73420716Y-113710515D01*
X73307644Y-113437533D01*
X73250000Y-113147739D01*
X73250000Y-112852261D01*
X73307644Y-112562467D01*
X73420716Y-112289485D01*
X73584876Y-112043803D01*
X73793803Y-111834876D01*
X73862036Y-111789284D01*
X74039483Y-111670717D01*
X74312466Y-111557644D01*
X74409065Y-111538429D01*
X74602261Y-111500000D01*
X74897739Y-111500000D01*
X75090935Y-111538429D01*
X75090935Y-111538429D01*
G37*
G36*
X82710935Y-108998429D02*
X82807534Y-109017644D01*
X83080517Y-109130717D01*
X83322920Y-109292687D01*
X83326197Y-109294876D01*
X83535124Y-109503803D01*
X83699284Y-109749485D01*
X83812356Y-110022467D01*
X83870000Y-110312261D01*
X83870000Y-110607739D01*
X83812356Y-110897533D01*
X83699284Y-111170515D01*
X83535124Y-111416197D01*
X83326197Y-111625124D01*
X83326194Y-111625126D01*
X83080517Y-111789283D01*
X82807534Y-111902356D01*
X82710935Y-111921571D01*
X82517739Y-111960000D01*
X82222261Y-111960000D01*
X82029065Y-111921571D01*
X81932466Y-111902356D01*
X81659483Y-111789283D01*
X81413806Y-111625126D01*
X81413803Y-111625124D01*
X81204876Y-111416197D01*
X81040716Y-111170515D01*
X80927644Y-110897533D01*
X80870000Y-110607739D01*
X80870000Y-110312261D01*
X80927644Y-110022467D01*
X81040716Y-109749485D01*
X81204876Y-109503803D01*
X81413803Y-109294876D01*
X81417080Y-109292687D01*
X81659483Y-109130717D01*
X81932466Y-109017644D01*
X82029065Y-108998429D01*
X82222261Y-108960000D01*
X82517739Y-108960000D01*
X82710935Y-108998429D01*
X82710935Y-108998429D01*
G37*
G36*
X128970935Y-108998429D02*
X129067534Y-109017644D01*
X129340517Y-109130717D01*
X129582920Y-109292687D01*
X129586197Y-109294876D01*
X129795124Y-109503803D01*
X129959284Y-109749485D01*
X130072356Y-110022467D01*
X130130000Y-110312261D01*
X130130000Y-110607739D01*
X130072356Y-110897533D01*
X129959284Y-111170515D01*
X129795124Y-111416197D01*
X129586197Y-111625124D01*
X129586194Y-111625126D01*
X129340517Y-111789283D01*
X129067534Y-111902356D01*
X128970935Y-111921571D01*
X128777739Y-111960000D01*
X128482261Y-111960000D01*
X128289065Y-111921571D01*
X128192466Y-111902356D01*
X127919483Y-111789283D01*
X127673806Y-111625126D01*
X127673803Y-111625124D01*
X127464876Y-111416197D01*
X127300716Y-111170515D01*
X127187644Y-110897533D01*
X127130000Y-110607739D01*
X127130000Y-110312261D01*
X127187644Y-110022467D01*
X127300716Y-109749485D01*
X127464876Y-109503803D01*
X127673803Y-109294876D01*
X127677080Y-109292687D01*
X127919483Y-109130717D01*
X128192466Y-109017644D01*
X128289065Y-108998429D01*
X128482261Y-108960000D01*
X128777739Y-108960000D01*
X128970935Y-108998429D01*
X128970935Y-108998429D01*
G37*
M02*
