G04 #@! TF.GenerationSoftware,KiCad,Pcbnew,(5.0.2)-1*
G04 #@! TF.CreationDate,2019-04-14T17:31:43+02:00*
G04 #@! TF.ProjectId,APRS-Tracker_ArduinoProMini,41505253-2d54-4726-9163-6b65725f4172,rev?*
G04 #@! TF.SameCoordinates,Original*
G04 #@! TF.FileFunction,Legend,Top*
G04 #@! TF.FilePolarity,Positive*
%FSLAX46Y46*%
G04 Gerber Fmt 4.6, Leading zero omitted, Abs format (unit mm)*
G04 Created by KiCad (PCBNEW (5.0.2)-1) date 14.04.2019 17:31:43*
%MOMM*%
%LPD*%
G01*
G04 APERTURE LIST*
%ADD10C,0.150000*%
%ADD11C,0.300000*%
%ADD12C,0.200000*%
%ADD13C,0.120000*%
%ADD14C,1.800000*%
%ADD15R,2.800000X2.800000*%
%ADD16R,1.600000X1.600000*%
%ADD17C,1.600000*%
%ADD18R,1.050000X1.500000*%
%ADD19O,1.050000X1.500000*%
%ADD20C,1.400000*%
%ADD21O,1.400000X1.400000*%
%ADD22C,1.440000*%
%ADD23R,1.700000X1.700000*%
%ADD24O,1.700000X1.700000*%
%ADD25C,2.100000*%
%ADD26C,1.750000*%
%ADD27R,1.400000X1.400000*%
%ADD28C,3.000000*%
G04 APERTURE END LIST*
D10*
X105556000Y-136388000D02*
X109366000Y-132578000D01*
X113176000Y-136388000D02*
X109366000Y-132578000D01*
X109366000Y-140198000D02*
X105556000Y-136388000D01*
X109366000Y-140198000D02*
X113176000Y-136388000D01*
X111144000Y-127498000D02*
X107080000Y-127498000D01*
X111144000Y-129530000D02*
X111144000Y-127498000D01*
X107080000Y-129530000D02*
X111144000Y-129530000D01*
X107080000Y-127498000D02*
X107080000Y-129530000D01*
X103359404Y-150600000D02*
X103264166Y-150552380D01*
X103121309Y-150552380D01*
X102978452Y-150600000D01*
X102883214Y-150695238D01*
X102835595Y-150790476D01*
X102787976Y-150980952D01*
X102787976Y-151123809D01*
X102835595Y-151314285D01*
X102883214Y-151409523D01*
X102978452Y-151504761D01*
X103121309Y-151552380D01*
X103216547Y-151552380D01*
X103359404Y-151504761D01*
X103407023Y-151457142D01*
X103407023Y-151123809D01*
X103216547Y-151123809D01*
X103835595Y-151552380D02*
X103835595Y-150552380D01*
X104407023Y-151552380D01*
X104407023Y-150552380D01*
X104883214Y-151552380D02*
X104883214Y-150552380D01*
X105121309Y-150552380D01*
X105264166Y-150600000D01*
X105359404Y-150695238D01*
X105407023Y-150790476D01*
X105454642Y-150980952D01*
X105454642Y-151123809D01*
X105407023Y-151314285D01*
X105359404Y-151409523D01*
X105264166Y-151504761D01*
X105121309Y-151552380D01*
X104883214Y-151552380D01*
X102792738Y-146452380D02*
X103126071Y-147452380D01*
X103459404Y-146452380D01*
X104364166Y-147357142D02*
X104316547Y-147404761D01*
X104173690Y-147452380D01*
X104078452Y-147452380D01*
X103935595Y-147404761D01*
X103840357Y-147309523D01*
X103792738Y-147214285D01*
X103745119Y-147023809D01*
X103745119Y-146880952D01*
X103792738Y-146690476D01*
X103840357Y-146595238D01*
X103935595Y-146500000D01*
X104078452Y-146452380D01*
X104173690Y-146452380D01*
X104316547Y-146500000D01*
X104364166Y-146547619D01*
X105364166Y-147357142D02*
X105316547Y-147404761D01*
X105173690Y-147452380D01*
X105078452Y-147452380D01*
X104935595Y-147404761D01*
X104840357Y-147309523D01*
X104792738Y-147214285D01*
X104745119Y-147023809D01*
X104745119Y-146880952D01*
X104792738Y-146690476D01*
X104840357Y-146595238D01*
X104935595Y-146500000D01*
X105078452Y-146452380D01*
X105173690Y-146452380D01*
X105316547Y-146500000D01*
X105364166Y-146547619D01*
X132408571Y-145769857D02*
X132456190Y-145627000D01*
X132503809Y-145579380D01*
X132599047Y-145531761D01*
X132741904Y-145531761D01*
X132837142Y-145579380D01*
X132884761Y-145627000D01*
X132932380Y-145722238D01*
X132932380Y-146103190D01*
X131932380Y-146103190D01*
X131932380Y-145769857D01*
X131980000Y-145674619D01*
X132027619Y-145627000D01*
X132122857Y-145579380D01*
X132218095Y-145579380D01*
X132313333Y-145627000D01*
X132360952Y-145674619D01*
X132408571Y-145769857D01*
X132408571Y-146103190D01*
X132884761Y-144722238D02*
X132932380Y-144817476D01*
X132932380Y-145007952D01*
X132884761Y-145103190D01*
X132789523Y-145150809D01*
X132408571Y-145150809D01*
X132313333Y-145103190D01*
X132265714Y-145007952D01*
X132265714Y-144817476D01*
X132313333Y-144722238D01*
X132408571Y-144674619D01*
X132503809Y-144674619D01*
X132599047Y-145150809D01*
X132932380Y-143817476D02*
X132408571Y-143817476D01*
X132313333Y-143865095D01*
X132265714Y-143960333D01*
X132265714Y-144150809D01*
X132313333Y-144246047D01*
X132884761Y-143817476D02*
X132932380Y-143912714D01*
X132932380Y-144150809D01*
X132884761Y-144246047D01*
X132789523Y-144293666D01*
X132694285Y-144293666D01*
X132599047Y-144246047D01*
X132551428Y-144150809D01*
X132551428Y-143912714D01*
X132503809Y-143817476D01*
X132884761Y-142912714D02*
X132932380Y-143007952D01*
X132932380Y-143198428D01*
X132884761Y-143293666D01*
X132837142Y-143341285D01*
X132741904Y-143388904D01*
X132456190Y-143388904D01*
X132360952Y-143341285D01*
X132313333Y-143293666D01*
X132265714Y-143198428D01*
X132265714Y-143007952D01*
X132313333Y-142912714D01*
X132932380Y-142341285D02*
X132884761Y-142436523D01*
X132837142Y-142484142D01*
X132741904Y-142531761D01*
X132456190Y-142531761D01*
X132360952Y-142484142D01*
X132313333Y-142436523D01*
X132265714Y-142341285D01*
X132265714Y-142198428D01*
X132313333Y-142103190D01*
X132360952Y-142055571D01*
X132456190Y-142007952D01*
X132741904Y-142007952D01*
X132837142Y-142055571D01*
X132884761Y-142103190D01*
X132932380Y-142198428D01*
X132932380Y-142341285D01*
X132265714Y-141579380D02*
X132932380Y-141579380D01*
X132360952Y-141579380D02*
X132313333Y-141531761D01*
X132265714Y-141436523D01*
X132265714Y-141293666D01*
X132313333Y-141198428D01*
X132408571Y-141150809D01*
X132932380Y-141150809D01*
X111739333Y-152587904D02*
X111691714Y-152635523D01*
X111548857Y-152730761D01*
X111453619Y-152778380D01*
X111310761Y-152826000D01*
X111072666Y-152873619D01*
X110882190Y-152873619D01*
X110644095Y-152826000D01*
X110501238Y-152778380D01*
X110406000Y-152730761D01*
X110263142Y-152635523D01*
X110215523Y-152587904D01*
X110358380Y-152302190D02*
X110358380Y-151683142D01*
X110739333Y-152016476D01*
X110739333Y-151873619D01*
X110786952Y-151778380D01*
X110834571Y-151730761D01*
X110929809Y-151683142D01*
X111167904Y-151683142D01*
X111263142Y-151730761D01*
X111310761Y-151778380D01*
X111358380Y-151873619D01*
X111358380Y-152159333D01*
X111310761Y-152254571D01*
X111263142Y-152302190D01*
X111310761Y-151206952D02*
X111358380Y-151206952D01*
X111453619Y-151254571D01*
X111501238Y-151302190D01*
X110358380Y-150873619D02*
X110358380Y-150254571D01*
X110739333Y-150587904D01*
X110739333Y-150445047D01*
X110786952Y-150349809D01*
X110834571Y-150302190D01*
X110929809Y-150254571D01*
X111167904Y-150254571D01*
X111263142Y-150302190D01*
X111310761Y-150349809D01*
X111358380Y-150445047D01*
X111358380Y-150730761D01*
X111310761Y-150826000D01*
X111263142Y-150873619D01*
X110358380Y-149968857D02*
X111358380Y-149635523D01*
X110358380Y-149302190D01*
X110310761Y-148254571D02*
X111596476Y-149111714D01*
X110786952Y-147778380D02*
X110739333Y-147873619D01*
X110691714Y-147921238D01*
X110596476Y-147968857D01*
X110548857Y-147968857D01*
X110453619Y-147921238D01*
X110406000Y-147873619D01*
X110358380Y-147778380D01*
X110358380Y-147587904D01*
X110406000Y-147492666D01*
X110453619Y-147445047D01*
X110548857Y-147397428D01*
X110596476Y-147397428D01*
X110691714Y-147445047D01*
X110739333Y-147492666D01*
X110786952Y-147587904D01*
X110786952Y-147778380D01*
X110834571Y-147873619D01*
X110882190Y-147921238D01*
X110977428Y-147968857D01*
X111167904Y-147968857D01*
X111263142Y-147921238D01*
X111310761Y-147873619D01*
X111358380Y-147778380D01*
X111358380Y-147587904D01*
X111310761Y-147492666D01*
X111263142Y-147445047D01*
X111167904Y-147397428D01*
X110977428Y-147397428D01*
X110882190Y-147445047D01*
X110834571Y-147492666D01*
X110786952Y-147587904D01*
X111358380Y-146968857D02*
X110358380Y-146968857D01*
X111072666Y-146635523D01*
X110358380Y-146302190D01*
X111358380Y-146302190D01*
X111358380Y-145826000D02*
X110358380Y-145826000D01*
X110834571Y-145826000D02*
X110834571Y-145254571D01*
X111358380Y-145254571D02*
X110358380Y-145254571D01*
X110691714Y-144873619D02*
X110691714Y-144349809D01*
X111358380Y-144873619D01*
X111358380Y-144349809D01*
X111739333Y-144064095D02*
X111691714Y-144016476D01*
X111548857Y-143921238D01*
X111453619Y-143873619D01*
X111310761Y-143826000D01*
X111072666Y-143778380D01*
X110882190Y-143778380D01*
X110644095Y-143826000D01*
X110501238Y-143873619D01*
X110406000Y-143921238D01*
X110263142Y-144016476D01*
X110215523Y-144064095D01*
D11*
X73285714Y-126750000D02*
X74000000Y-126750000D01*
X73142857Y-127178571D02*
X73642857Y-125678571D01*
X74142857Y-127178571D01*
X74642857Y-127178571D02*
X74642857Y-125678571D01*
X75214285Y-125678571D01*
X75357142Y-125750000D01*
X75428571Y-125821428D01*
X75500000Y-125964285D01*
X75500000Y-126178571D01*
X75428571Y-126321428D01*
X75357142Y-126392857D01*
X75214285Y-126464285D01*
X74642857Y-126464285D01*
X77000000Y-127178571D02*
X76500000Y-126464285D01*
X76142857Y-127178571D02*
X76142857Y-125678571D01*
X76714285Y-125678571D01*
X76857142Y-125750000D01*
X76928571Y-125821428D01*
X77000000Y-125964285D01*
X77000000Y-126178571D01*
X76928571Y-126321428D01*
X76857142Y-126392857D01*
X76714285Y-126464285D01*
X76142857Y-126464285D01*
X77571428Y-127107142D02*
X77785714Y-127178571D01*
X78142857Y-127178571D01*
X78285714Y-127107142D01*
X78357142Y-127035714D01*
X78428571Y-126892857D01*
X78428571Y-126750000D01*
X78357142Y-126607142D01*
X78285714Y-126535714D01*
X78142857Y-126464285D01*
X77857142Y-126392857D01*
X77714285Y-126321428D01*
X77642857Y-126250000D01*
X77571428Y-126107142D01*
X77571428Y-125964285D01*
X77642857Y-125821428D01*
X77714285Y-125750000D01*
X77857142Y-125678571D01*
X78214285Y-125678571D01*
X78428571Y-125750000D01*
X80000000Y-125678571D02*
X80857142Y-125678571D01*
X80428571Y-127178571D02*
X80428571Y-125678571D01*
X81357142Y-127178571D02*
X81357142Y-126178571D01*
X81357142Y-126464285D02*
X81428571Y-126321428D01*
X81500000Y-126250000D01*
X81642857Y-126178571D01*
X81785714Y-126178571D01*
X82928571Y-127178571D02*
X82928571Y-126392857D01*
X82857142Y-126250000D01*
X82714285Y-126178571D01*
X82428571Y-126178571D01*
X82285714Y-126250000D01*
X82928571Y-127107142D02*
X82785714Y-127178571D01*
X82428571Y-127178571D01*
X82285714Y-127107142D01*
X82214285Y-126964285D01*
X82214285Y-126821428D01*
X82285714Y-126678571D01*
X82428571Y-126607142D01*
X82785714Y-126607142D01*
X82928571Y-126535714D01*
X84285714Y-127107142D02*
X84142857Y-127178571D01*
X83857142Y-127178571D01*
X83714285Y-127107142D01*
X83642857Y-127035714D01*
X83571428Y-126892857D01*
X83571428Y-126464285D01*
X83642857Y-126321428D01*
X83714285Y-126250000D01*
X83857142Y-126178571D01*
X84142857Y-126178571D01*
X84285714Y-126250000D01*
X84928571Y-127178571D02*
X84928571Y-125678571D01*
X85071428Y-126607142D02*
X85500000Y-127178571D01*
X85500000Y-126178571D02*
X84928571Y-126750000D01*
X86714285Y-127107142D02*
X86571428Y-127178571D01*
X86285714Y-127178571D01*
X86142857Y-127107142D01*
X86071428Y-126964285D01*
X86071428Y-126392857D01*
X86142857Y-126250000D01*
X86285714Y-126178571D01*
X86571428Y-126178571D01*
X86714285Y-126250000D01*
X86785714Y-126392857D01*
X86785714Y-126535714D01*
X86071428Y-126678571D01*
X87428571Y-127178571D02*
X87428571Y-126178571D01*
X87428571Y-126464285D02*
X87500000Y-126321428D01*
X87571428Y-126250000D01*
X87714285Y-126178571D01*
X87857142Y-126178571D01*
D12*
X136572285Y-122900000D02*
X136458000Y-122842857D01*
X136286571Y-122842857D01*
X136115142Y-122900000D01*
X136000857Y-123014285D01*
X135943714Y-123128571D01*
X135886571Y-123357142D01*
X135886571Y-123528571D01*
X135943714Y-123757142D01*
X136000857Y-123871428D01*
X136115142Y-123985714D01*
X136286571Y-124042857D01*
X136400857Y-124042857D01*
X136572285Y-123985714D01*
X136629428Y-123928571D01*
X136629428Y-123528571D01*
X136400857Y-123528571D01*
X137143714Y-124042857D02*
X137143714Y-122842857D01*
X137600857Y-122842857D01*
X137715142Y-122900000D01*
X137772285Y-122957142D01*
X137829428Y-123071428D01*
X137829428Y-123242857D01*
X137772285Y-123357142D01*
X137715142Y-123414285D01*
X137600857Y-123471428D01*
X137143714Y-123471428D01*
X138286571Y-123985714D02*
X138458000Y-124042857D01*
X138743714Y-124042857D01*
X138858000Y-123985714D01*
X138915142Y-123928571D01*
X138972285Y-123814285D01*
X138972285Y-123700000D01*
X138915142Y-123585714D01*
X138858000Y-123528571D01*
X138743714Y-123471428D01*
X138515142Y-123414285D01*
X138400857Y-123357142D01*
X138343714Y-123300000D01*
X138286571Y-123185714D01*
X138286571Y-123071428D01*
X138343714Y-122957142D01*
X138400857Y-122900000D01*
X138515142Y-122842857D01*
X138800857Y-122842857D01*
X138972285Y-122900000D01*
D10*
X118764000Y-156454000D02*
X120796000Y-156454000D01*
X120796000Y-156454000D02*
G75*
G03X120796000Y-156454000I-1016000J0D01*
G01*
X136228738Y-131014380D02*
X136800166Y-131014380D01*
X136514452Y-132014380D02*
X136514452Y-131014380D01*
X137038261Y-131014380D02*
X137704928Y-132014380D01*
X137704928Y-131014380D02*
X137038261Y-132014380D01*
X136371595Y-126934380D02*
X136371595Y-125934380D01*
X136752547Y-125934380D01*
X136847785Y-125982000D01*
X136895404Y-126029619D01*
X136943023Y-126124857D01*
X136943023Y-126267714D01*
X136895404Y-126362952D01*
X136847785Y-126410571D01*
X136752547Y-126458190D01*
X136371595Y-126458190D01*
X137371595Y-126934380D02*
X137371595Y-125934380D01*
X137752547Y-125934380D01*
X137847785Y-125982000D01*
X137895404Y-126029619D01*
X137943023Y-126124857D01*
X137943023Y-126267714D01*
X137895404Y-126362952D01*
X137847785Y-126410571D01*
X137752547Y-126458190D01*
X137371595Y-126458190D01*
X138323976Y-126886761D02*
X138466833Y-126934380D01*
X138704928Y-126934380D01*
X138800166Y-126886761D01*
X138847785Y-126839142D01*
X138895404Y-126743904D01*
X138895404Y-126648666D01*
X138847785Y-126553428D01*
X138800166Y-126505809D01*
X138704928Y-126458190D01*
X138514452Y-126410571D01*
X138419214Y-126362952D01*
X138371595Y-126315333D01*
X138323976Y-126220095D01*
X138323976Y-126124857D01*
X138371595Y-126029619D01*
X138419214Y-125982000D01*
X138514452Y-125934380D01*
X138752547Y-125934380D01*
X138895404Y-125982000D01*
X136943023Y-129474380D02*
X136609690Y-128998190D01*
X136371595Y-129474380D02*
X136371595Y-128474380D01*
X136752547Y-128474380D01*
X136847785Y-128522000D01*
X136895404Y-128569619D01*
X136943023Y-128664857D01*
X136943023Y-128807714D01*
X136895404Y-128902952D01*
X136847785Y-128950571D01*
X136752547Y-128998190D01*
X136371595Y-128998190D01*
X137276357Y-128474380D02*
X137943023Y-129474380D01*
X137943023Y-128474380D02*
X137276357Y-129474380D01*
X136228738Y-136094380D02*
X136562071Y-137094380D01*
X136895404Y-136094380D01*
X137800166Y-136999142D02*
X137752547Y-137046761D01*
X137609690Y-137094380D01*
X137514452Y-137094380D01*
X137371595Y-137046761D01*
X137276357Y-136951523D01*
X137228738Y-136856285D01*
X137181119Y-136665809D01*
X137181119Y-136522952D01*
X137228738Y-136332476D01*
X137276357Y-136237238D01*
X137371595Y-136142000D01*
X137514452Y-136094380D01*
X137609690Y-136094380D01*
X137752547Y-136142000D01*
X137800166Y-136189619D01*
X138800166Y-136999142D02*
X138752547Y-137046761D01*
X138609690Y-137094380D01*
X138514452Y-137094380D01*
X138371595Y-137046761D01*
X138276357Y-136951523D01*
X138228738Y-136856285D01*
X138181119Y-136665809D01*
X138181119Y-136522952D01*
X138228738Y-136332476D01*
X138276357Y-136237238D01*
X138371595Y-136142000D01*
X138514452Y-136094380D01*
X138609690Y-136094380D01*
X138752547Y-136142000D01*
X138800166Y-136189619D01*
X136895404Y-133602000D02*
X136800166Y-133554380D01*
X136657309Y-133554380D01*
X136514452Y-133602000D01*
X136419214Y-133697238D01*
X136371595Y-133792476D01*
X136323976Y-133982952D01*
X136323976Y-134125809D01*
X136371595Y-134316285D01*
X136419214Y-134411523D01*
X136514452Y-134506761D01*
X136657309Y-134554380D01*
X136752547Y-134554380D01*
X136895404Y-134506761D01*
X136943023Y-134459142D01*
X136943023Y-134125809D01*
X136752547Y-134125809D01*
X137371595Y-134554380D02*
X137371595Y-133554380D01*
X137943023Y-134554380D01*
X137943023Y-133554380D01*
X138419214Y-134554380D02*
X138419214Y-133554380D01*
X138657309Y-133554380D01*
X138800166Y-133602000D01*
X138895404Y-133697238D01*
X138943023Y-133792476D01*
X138990642Y-133982952D01*
X138990642Y-134125809D01*
X138943023Y-134316285D01*
X138895404Y-134411523D01*
X138800166Y-134506761D01*
X138657309Y-134554380D01*
X138419214Y-134554380D01*
X136371595Y-156398380D02*
X136371595Y-155398380D01*
X136704928Y-156112666D01*
X137038261Y-155398380D01*
X137038261Y-156398380D01*
X137514452Y-156398380D02*
X137514452Y-155398380D01*
X138562071Y-156303142D02*
X138514452Y-156350761D01*
X138371595Y-156398380D01*
X138276357Y-156398380D01*
X138133500Y-156350761D01*
X138038261Y-156255523D01*
X137990642Y-156160285D01*
X137943023Y-155969809D01*
X137943023Y-155826952D01*
X137990642Y-155636476D01*
X138038261Y-155541238D01*
X138133500Y-155446000D01*
X138276357Y-155398380D01*
X138371595Y-155398380D01*
X138514452Y-155446000D01*
X138562071Y-155493619D01*
X136895404Y-152906000D02*
X136800166Y-152858380D01*
X136657309Y-152858380D01*
X136514452Y-152906000D01*
X136419214Y-153001238D01*
X136371595Y-153096476D01*
X136323976Y-153286952D01*
X136323976Y-153429809D01*
X136371595Y-153620285D01*
X136419214Y-153715523D01*
X136514452Y-153810761D01*
X136657309Y-153858380D01*
X136752547Y-153858380D01*
X136895404Y-153810761D01*
X136943023Y-153763142D01*
X136943023Y-153429809D01*
X136752547Y-153429809D01*
X137371595Y-153858380D02*
X137371595Y-152858380D01*
X137943023Y-153858380D01*
X137943023Y-152858380D01*
X138419214Y-153858380D02*
X138419214Y-152858380D01*
X138657309Y-152858380D01*
X138800166Y-152906000D01*
X138895404Y-153001238D01*
X138943023Y-153096476D01*
X138990642Y-153286952D01*
X138990642Y-153429809D01*
X138943023Y-153620285D01*
X138895404Y-153715523D01*
X138800166Y-153810761D01*
X138657309Y-153858380D01*
X138419214Y-153858380D01*
X136371595Y-151318380D02*
X136371595Y-150318380D01*
X136752547Y-150318380D01*
X136847785Y-150366000D01*
X136895404Y-150413619D01*
X136943023Y-150508857D01*
X136943023Y-150651714D01*
X136895404Y-150746952D01*
X136847785Y-150794571D01*
X136752547Y-150842190D01*
X136371595Y-150842190D01*
X137228738Y-150318380D02*
X137800166Y-150318380D01*
X137514452Y-151318380D02*
X137514452Y-150318380D01*
X137990642Y-150318380D02*
X138562071Y-150318380D01*
X138276357Y-151318380D02*
X138276357Y-150318380D01*
G04 #@! TO.C,U3*
X117494000Y-124450000D02*
X117494000Y-157470000D01*
X117494000Y-157470000D02*
X99714000Y-157470000D01*
X99714000Y-157470000D02*
X99714000Y-124450000D01*
X99714000Y-124450000D02*
X117494000Y-124450000D01*
G04 #@! TO.C,U1*
X73766000Y-131878000D02*
X86666000Y-131878000D01*
X86666000Y-131878000D02*
X86666000Y-131578000D01*
X86666000Y-131678000D02*
X86666000Y-129578000D01*
X86666000Y-129578000D02*
X86966000Y-129578000D01*
X71266000Y-131678000D02*
X71266000Y-129578000D01*
X71266000Y-129578000D02*
X73766000Y-129578000D01*
X73766000Y-129578000D02*
X73766000Y-131878000D01*
X86966000Y-129578000D02*
X89066000Y-129578000D01*
X89066000Y-129578000D02*
X89066000Y-157978000D01*
X89066000Y-157978000D02*
X71266000Y-157978000D01*
X78466000Y-157578000D02*
X78466000Y-155078000D01*
X78466000Y-155078000D02*
X82266000Y-155078000D01*
X82266000Y-155078000D02*
X82266000Y-157578000D01*
X82266000Y-157578000D02*
X78566000Y-157578000D01*
X71266000Y-157978000D02*
X71266000Y-131678000D01*
D13*
G04 #@! TO.C,C1*
X96409740Y-126510000D02*
G75*
G03X96409741Y-128630000I-2119740J-1060000D01*
G01*
X96827288Y-128905000D02*
X96377288Y-128905000D01*
X96602288Y-129130000D02*
X96602288Y-128680000D01*
G04 #@! TO.C,C2*
X130782000Y-152624000D02*
G75*
G03X130782000Y-152624000I-2620000J0D01*
G01*
X130742000Y-152624000D02*
X125582000Y-152624000D01*
X130742000Y-152664000D02*
X125582000Y-152664000D01*
X130741000Y-152704000D02*
X125583000Y-152704000D01*
X130740000Y-152744000D02*
X125584000Y-152744000D01*
X130738000Y-152784000D02*
X125586000Y-152784000D01*
X130735000Y-152824000D02*
X125589000Y-152824000D01*
X130731000Y-152864000D02*
X129202000Y-152864000D01*
X127122000Y-152864000D02*
X125593000Y-152864000D01*
X130727000Y-152904000D02*
X129202000Y-152904000D01*
X127122000Y-152904000D02*
X125597000Y-152904000D01*
X130723000Y-152944000D02*
X129202000Y-152944000D01*
X127122000Y-152944000D02*
X125601000Y-152944000D01*
X130718000Y-152984000D02*
X129202000Y-152984000D01*
X127122000Y-152984000D02*
X125606000Y-152984000D01*
X130712000Y-153024000D02*
X129202000Y-153024000D01*
X127122000Y-153024000D02*
X125612000Y-153024000D01*
X130705000Y-153064000D02*
X129202000Y-153064000D01*
X127122000Y-153064000D02*
X125619000Y-153064000D01*
X130698000Y-153104000D02*
X129202000Y-153104000D01*
X127122000Y-153104000D02*
X125626000Y-153104000D01*
X130690000Y-153144000D02*
X129202000Y-153144000D01*
X127122000Y-153144000D02*
X125634000Y-153144000D01*
X130682000Y-153184000D02*
X129202000Y-153184000D01*
X127122000Y-153184000D02*
X125642000Y-153184000D01*
X130673000Y-153224000D02*
X129202000Y-153224000D01*
X127122000Y-153224000D02*
X125651000Y-153224000D01*
X130663000Y-153264000D02*
X129202000Y-153264000D01*
X127122000Y-153264000D02*
X125661000Y-153264000D01*
X130653000Y-153304000D02*
X129202000Y-153304000D01*
X127122000Y-153304000D02*
X125671000Y-153304000D01*
X130642000Y-153345000D02*
X129202000Y-153345000D01*
X127122000Y-153345000D02*
X125682000Y-153345000D01*
X130630000Y-153385000D02*
X129202000Y-153385000D01*
X127122000Y-153385000D02*
X125694000Y-153385000D01*
X130617000Y-153425000D02*
X129202000Y-153425000D01*
X127122000Y-153425000D02*
X125707000Y-153425000D01*
X130604000Y-153465000D02*
X129202000Y-153465000D01*
X127122000Y-153465000D02*
X125720000Y-153465000D01*
X130590000Y-153505000D02*
X129202000Y-153505000D01*
X127122000Y-153505000D02*
X125734000Y-153505000D01*
X130576000Y-153545000D02*
X129202000Y-153545000D01*
X127122000Y-153545000D02*
X125748000Y-153545000D01*
X130560000Y-153585000D02*
X129202000Y-153585000D01*
X127122000Y-153585000D02*
X125764000Y-153585000D01*
X130544000Y-153625000D02*
X129202000Y-153625000D01*
X127122000Y-153625000D02*
X125780000Y-153625000D01*
X130527000Y-153665000D02*
X129202000Y-153665000D01*
X127122000Y-153665000D02*
X125797000Y-153665000D01*
X130510000Y-153705000D02*
X129202000Y-153705000D01*
X127122000Y-153705000D02*
X125814000Y-153705000D01*
X130491000Y-153745000D02*
X129202000Y-153745000D01*
X127122000Y-153745000D02*
X125833000Y-153745000D01*
X130472000Y-153785000D02*
X129202000Y-153785000D01*
X127122000Y-153785000D02*
X125852000Y-153785000D01*
X130452000Y-153825000D02*
X129202000Y-153825000D01*
X127122000Y-153825000D02*
X125872000Y-153825000D01*
X130430000Y-153865000D02*
X129202000Y-153865000D01*
X127122000Y-153865000D02*
X125894000Y-153865000D01*
X130409000Y-153905000D02*
X129202000Y-153905000D01*
X127122000Y-153905000D02*
X125915000Y-153905000D01*
X130386000Y-153945000D02*
X129202000Y-153945000D01*
X127122000Y-153945000D02*
X125938000Y-153945000D01*
X130362000Y-153985000D02*
X129202000Y-153985000D01*
X127122000Y-153985000D02*
X125962000Y-153985000D01*
X130337000Y-154025000D02*
X129202000Y-154025000D01*
X127122000Y-154025000D02*
X125987000Y-154025000D01*
X130311000Y-154065000D02*
X129202000Y-154065000D01*
X127122000Y-154065000D02*
X126013000Y-154065000D01*
X130284000Y-154105000D02*
X129202000Y-154105000D01*
X127122000Y-154105000D02*
X126040000Y-154105000D01*
X130257000Y-154145000D02*
X129202000Y-154145000D01*
X127122000Y-154145000D02*
X126067000Y-154145000D01*
X130227000Y-154185000D02*
X129202000Y-154185000D01*
X127122000Y-154185000D02*
X126097000Y-154185000D01*
X130197000Y-154225000D02*
X129202000Y-154225000D01*
X127122000Y-154225000D02*
X126127000Y-154225000D01*
X130166000Y-154265000D02*
X129202000Y-154265000D01*
X127122000Y-154265000D02*
X126158000Y-154265000D01*
X130133000Y-154305000D02*
X129202000Y-154305000D01*
X127122000Y-154305000D02*
X126191000Y-154305000D01*
X130099000Y-154345000D02*
X129202000Y-154345000D01*
X127122000Y-154345000D02*
X126225000Y-154345000D01*
X130063000Y-154385000D02*
X129202000Y-154385000D01*
X127122000Y-154385000D02*
X126261000Y-154385000D01*
X130026000Y-154425000D02*
X129202000Y-154425000D01*
X127122000Y-154425000D02*
X126298000Y-154425000D01*
X129988000Y-154465000D02*
X129202000Y-154465000D01*
X127122000Y-154465000D02*
X126336000Y-154465000D01*
X129947000Y-154505000D02*
X129202000Y-154505000D01*
X127122000Y-154505000D02*
X126377000Y-154505000D01*
X129905000Y-154545000D02*
X129202000Y-154545000D01*
X127122000Y-154545000D02*
X126419000Y-154545000D01*
X129861000Y-154585000D02*
X129202000Y-154585000D01*
X127122000Y-154585000D02*
X126463000Y-154585000D01*
X129815000Y-154625000D02*
X129202000Y-154625000D01*
X127122000Y-154625000D02*
X126509000Y-154625000D01*
X129767000Y-154665000D02*
X129202000Y-154665000D01*
X127122000Y-154665000D02*
X126557000Y-154665000D01*
X129716000Y-154705000D02*
X129202000Y-154705000D01*
X127122000Y-154705000D02*
X126608000Y-154705000D01*
X129662000Y-154745000D02*
X129202000Y-154745000D01*
X127122000Y-154745000D02*
X126662000Y-154745000D01*
X129605000Y-154785000D02*
X129202000Y-154785000D01*
X127122000Y-154785000D02*
X126719000Y-154785000D01*
X129545000Y-154825000D02*
X129202000Y-154825000D01*
X127122000Y-154825000D02*
X126779000Y-154825000D01*
X129481000Y-154865000D02*
X129202000Y-154865000D01*
X127122000Y-154865000D02*
X126843000Y-154865000D01*
X129413000Y-154905000D02*
X129202000Y-154905000D01*
X127122000Y-154905000D02*
X126911000Y-154905000D01*
X129340000Y-154945000D02*
X126984000Y-154945000D01*
X129260000Y-154985000D02*
X127064000Y-154985000D01*
X129173000Y-155025000D02*
X127151000Y-155025000D01*
X129077000Y-155065000D02*
X127247000Y-155065000D01*
X128967000Y-155105000D02*
X127357000Y-155105000D01*
X128839000Y-155145000D02*
X127485000Y-155145000D01*
X128680000Y-155185000D02*
X127644000Y-155185000D01*
X128446000Y-155225000D02*
X127878000Y-155225000D01*
X129637000Y-149819225D02*
X129637000Y-150319225D01*
X129887000Y-150069225D02*
X129387000Y-150069225D01*
G04 #@! TO.C,C3*
X96722288Y-150890000D02*
X96722288Y-150440000D01*
X96947288Y-150665000D02*
X96497288Y-150665000D01*
X96529740Y-148270000D02*
G75*
G03X96529741Y-150390000I-2119740J-1060000D01*
G01*
G04 #@! TO.C,C4*
X96722288Y-143260000D02*
X96722288Y-142810000D01*
X96947288Y-143035000D02*
X96497288Y-143035000D01*
X96529740Y-140640000D02*
G75*
G03X96529741Y-142760000I-2119740J-1060000D01*
G01*
G04 #@! TO.C,Q1*
X126448478Y-128468478D02*
G75*
G03X124610000Y-124030000I-1838478J1838478D01*
G01*
X122771522Y-128468478D02*
G75*
G02X124610000Y-124030000I1838478J1838478D01*
G01*
X122810000Y-128480000D02*
X126410000Y-128480000D01*
G04 #@! TO.C,R1*
X125256000Y-146960000D02*
X125256000Y-145120000D01*
X125256000Y-145120000D02*
X121416000Y-145120000D01*
X121416000Y-145120000D02*
X121416000Y-146960000D01*
X121416000Y-146960000D02*
X125256000Y-146960000D01*
X126206000Y-146040000D02*
X125256000Y-146040000D01*
X120466000Y-146040000D02*
X121416000Y-146040000D01*
G04 #@! TO.C,R2*
X121416000Y-142580000D02*
X121416000Y-144420000D01*
X121416000Y-144420000D02*
X125256000Y-144420000D01*
X125256000Y-144420000D02*
X125256000Y-142580000D01*
X125256000Y-142580000D02*
X121416000Y-142580000D01*
X120466000Y-143500000D02*
X121416000Y-143500000D01*
X126206000Y-143500000D02*
X125256000Y-143500000D01*
G04 #@! TO.C,R3*
X126206000Y-140960000D02*
X125256000Y-140960000D01*
X120466000Y-140960000D02*
X121416000Y-140960000D01*
X125256000Y-140040000D02*
X121416000Y-140040000D01*
X125256000Y-141880000D02*
X125256000Y-140040000D01*
X121416000Y-141880000D02*
X125256000Y-141880000D01*
X121416000Y-140040000D02*
X121416000Y-141880000D01*
G04 #@! TO.C,R4*
X121416000Y-137500000D02*
X121416000Y-139340000D01*
X121416000Y-139340000D02*
X125256000Y-139340000D01*
X125256000Y-139340000D02*
X125256000Y-137500000D01*
X125256000Y-137500000D02*
X121416000Y-137500000D01*
X120466000Y-138420000D02*
X121416000Y-138420000D01*
X126206000Y-138420000D02*
X125256000Y-138420000D01*
G04 #@! TO.C,R5*
X126206000Y-135880000D02*
X125256000Y-135880000D01*
X120466000Y-135880000D02*
X121416000Y-135880000D01*
X125256000Y-134960000D02*
X121416000Y-134960000D01*
X125256000Y-136800000D02*
X125256000Y-134960000D01*
X121416000Y-136800000D02*
X125256000Y-136800000D01*
X121416000Y-134960000D02*
X121416000Y-136800000D01*
G04 #@! TO.C,R6*
X121416000Y-132420000D02*
X121416000Y-134260000D01*
X121416000Y-134260000D02*
X125256000Y-134260000D01*
X125256000Y-134260000D02*
X125256000Y-132420000D01*
X125256000Y-132420000D02*
X121416000Y-132420000D01*
X120466000Y-133340000D02*
X121416000Y-133340000D01*
X126206000Y-133340000D02*
X125256000Y-133340000D01*
G04 #@! TO.C,R7*
X126206000Y-130800000D02*
X125256000Y-130800000D01*
X120466000Y-130800000D02*
X121416000Y-130800000D01*
X125256000Y-129880000D02*
X121416000Y-129880000D01*
X125256000Y-131720000D02*
X125256000Y-129880000D01*
X121416000Y-131720000D02*
X125256000Y-131720000D01*
X121416000Y-129880000D02*
X121416000Y-131720000D01*
G04 #@! TO.C,RV1*
X123834000Y-147759000D02*
X123834000Y-157529000D01*
X118764000Y-147759000D02*
X118764000Y-157529000D01*
X123834000Y-147759000D02*
X118764000Y-147759000D01*
X123834000Y-157529000D02*
X118764000Y-157529000D01*
G04 #@! TO.C,U2*
X92590000Y-136750000D02*
X96190000Y-136750000D01*
X92551522Y-136738478D02*
G75*
G02X94390000Y-132300000I1838478J1838478D01*
G01*
X96228478Y-136738478D02*
G75*
G03X94390000Y-132300000I-1838478J1838478D01*
G01*
G04 #@! TO.C,J1*
X132166000Y-157276000D02*
X134826000Y-157276000D01*
X132166000Y-152136000D02*
X132166000Y-157276000D01*
X134826000Y-152136000D02*
X134826000Y-157276000D01*
X132166000Y-152136000D02*
X134826000Y-152136000D01*
X132166000Y-150866000D02*
X132166000Y-149536000D01*
X132166000Y-149536000D02*
X133496000Y-149536000D01*
G04 #@! TO.C,J2*
X132166000Y-137972000D02*
X134826000Y-137972000D01*
X132166000Y-127752000D02*
X132166000Y-137972000D01*
X134826000Y-127752000D02*
X134826000Y-137972000D01*
X132166000Y-127752000D02*
X134826000Y-127752000D01*
X132166000Y-126482000D02*
X132166000Y-125152000D01*
X132166000Y-125152000D02*
X133496000Y-125152000D01*
G04 #@! TO.C,SW1*
X136082000Y-140378000D02*
X135852000Y-140378000D01*
X139752000Y-139858000D02*
X139752000Y-147578000D01*
X139752000Y-147578000D02*
X135852000Y-147578000D01*
X132742000Y-139858000D02*
X132742000Y-140378000D01*
X139752000Y-139858000D02*
X135852000Y-139858000D01*
X136082000Y-147058000D02*
X135852000Y-147058000D01*
X133252000Y-140378000D02*
X132742000Y-140378000D01*
X133252000Y-139858000D02*
X132742000Y-139858000D01*
X136082000Y-146518000D02*
X136082000Y-147058000D01*
X133252000Y-147058000D02*
X132742000Y-147058000D01*
X132742000Y-147058000D02*
X132742000Y-147578000D01*
X133252000Y-147578000D02*
X132742000Y-147578000D01*
X136082000Y-140378000D02*
X136082000Y-140918000D01*
X136082000Y-142018000D02*
X136082000Y-145418000D01*
G04 #@! TO.C,SW2*
X98930000Y-158022000D02*
X97730000Y-158022000D01*
X98930000Y-154352000D02*
X98930000Y-158022000D01*
X97730000Y-154352000D02*
X98930000Y-154352000D01*
X89730000Y-158022000D02*
X90930000Y-158022000D01*
X89730000Y-154352000D02*
X89720000Y-158022000D01*
X90930000Y-154352000D02*
X89730000Y-154352000D01*
D10*
G04 #@! TO.C,BT1*
X125000000Y-109190000D02*
X125000000Y-116810000D01*
X86000000Y-109190000D02*
X86000000Y-116810000D01*
X71210000Y-108100000D02*
X77560000Y-108100000D01*
X77500000Y-117900000D02*
X71200000Y-117900000D01*
X133400000Y-121900000D02*
X77560000Y-121900000D01*
X77600000Y-104100000D02*
X133500000Y-104100000D01*
X77600000Y-108100000D02*
X77600000Y-104100000D01*
X71200000Y-108100000D02*
X71200000Y-117900000D01*
X77500000Y-121900000D02*
X77500000Y-117900000D01*
X139790000Y-117900000D02*
X133440000Y-117900000D01*
X133500000Y-108100000D02*
X139800000Y-108100000D01*
X133400000Y-117900000D02*
X133400000Y-121900000D01*
X133500000Y-104100000D02*
X133500000Y-108100000D01*
X139800000Y-108100000D02*
X139800000Y-117900000D01*
G04 #@! TO.C,U3*
X109326380Y-145015904D02*
X108326380Y-145015904D01*
X109040666Y-144682571D01*
X108326380Y-144349238D01*
X109326380Y-144349238D01*
X109326380Y-143873047D02*
X108659714Y-143873047D01*
X108326380Y-143873047D02*
X108374000Y-143920666D01*
X108421619Y-143873047D01*
X108374000Y-143825428D01*
X108326380Y-143873047D01*
X108421619Y-143873047D01*
X108659714Y-143396857D02*
X109326380Y-143396857D01*
X108754952Y-143396857D02*
X108707333Y-143349238D01*
X108659714Y-143254000D01*
X108659714Y-143111142D01*
X108707333Y-143015904D01*
X108802571Y-142968285D01*
X109326380Y-142968285D01*
X109326380Y-142492095D02*
X108659714Y-142492095D01*
X108326380Y-142492095D02*
X108374000Y-142539714D01*
X108421619Y-142492095D01*
X108374000Y-142444476D01*
X108326380Y-142492095D01*
X108421619Y-142492095D01*
X109326380Y-148079809D02*
X108326380Y-148079809D01*
X108326380Y-147698857D01*
X108374000Y-147603619D01*
X108421619Y-147556000D01*
X108516857Y-147508380D01*
X108659714Y-147508380D01*
X108754952Y-147556000D01*
X108802571Y-147603619D01*
X108850190Y-147698857D01*
X108850190Y-148079809D01*
X109326380Y-147079809D02*
X108659714Y-147079809D01*
X108850190Y-147079809D02*
X108754952Y-147032190D01*
X108707333Y-146984571D01*
X108659714Y-146889333D01*
X108659714Y-146794095D01*
X109326380Y-146317904D02*
X109278761Y-146413142D01*
X109231142Y-146460761D01*
X109135904Y-146508380D01*
X108850190Y-146508380D01*
X108754952Y-146460761D01*
X108707333Y-146413142D01*
X108659714Y-146317904D01*
X108659714Y-146175047D01*
X108707333Y-146079809D01*
X108754952Y-146032190D01*
X108850190Y-145984571D01*
X109135904Y-145984571D01*
X109231142Y-146032190D01*
X109278761Y-146079809D01*
X109326380Y-146175047D01*
X109326380Y-146317904D01*
X109040666Y-154223238D02*
X109040666Y-153747047D01*
X109326380Y-154318476D02*
X108326380Y-153985142D01*
X109326380Y-153651809D01*
X109326380Y-153318476D02*
X108659714Y-153318476D01*
X108850190Y-153318476D02*
X108754952Y-153270857D01*
X108707333Y-153223238D01*
X108659714Y-153128000D01*
X108659714Y-153032761D01*
X109326380Y-152270857D02*
X108326380Y-152270857D01*
X109278761Y-152270857D02*
X109326380Y-152366095D01*
X109326380Y-152556571D01*
X109278761Y-152651809D01*
X109231142Y-152699428D01*
X109135904Y-152747047D01*
X108850190Y-152747047D01*
X108754952Y-152699428D01*
X108707333Y-152651809D01*
X108659714Y-152556571D01*
X108659714Y-152366095D01*
X108707333Y-152270857D01*
X108659714Y-151366095D02*
X109326380Y-151366095D01*
X108659714Y-151794666D02*
X109183523Y-151794666D01*
X109278761Y-151747047D01*
X109326380Y-151651809D01*
X109326380Y-151508952D01*
X109278761Y-151413714D01*
X109231142Y-151366095D01*
X109326380Y-150889904D02*
X108659714Y-150889904D01*
X108326380Y-150889904D02*
X108374000Y-150937523D01*
X108421619Y-150889904D01*
X108374000Y-150842285D01*
X108326380Y-150889904D01*
X108421619Y-150889904D01*
X108659714Y-150413714D02*
X109326380Y-150413714D01*
X108754952Y-150413714D02*
X108707333Y-150366095D01*
X108659714Y-150270857D01*
X108659714Y-150128000D01*
X108707333Y-150032761D01*
X108802571Y-149985142D01*
X109326380Y-149985142D01*
X109326380Y-149366095D02*
X109278761Y-149461333D01*
X109231142Y-149508952D01*
X109135904Y-149556571D01*
X108850190Y-149556571D01*
X108754952Y-149508952D01*
X108707333Y-149461333D01*
X108659714Y-149366095D01*
X108659714Y-149223238D01*
X108707333Y-149128000D01*
X108754952Y-149080380D01*
X108850190Y-149032761D01*
X109135904Y-149032761D01*
X109231142Y-149080380D01*
X109278761Y-149128000D01*
X109326380Y-149223238D01*
X109326380Y-149366095D01*
G04 #@! TO.C,U1*
X79648095Y-133046380D02*
X79648095Y-133855904D01*
X79695714Y-133951142D01*
X79743333Y-133998761D01*
X79838571Y-134046380D01*
X80029047Y-134046380D01*
X80124285Y-133998761D01*
X80171904Y-133951142D01*
X80219523Y-133855904D01*
X80219523Y-133046380D01*
X81219523Y-134046380D02*
X80648095Y-134046380D01*
X80933809Y-134046380D02*
X80933809Y-133046380D01*
X80838571Y-133189238D01*
X80743333Y-133284476D01*
X80648095Y-133332095D01*
X73259142Y-143174571D02*
X73402000Y-143222190D01*
X73449619Y-143269809D01*
X73497238Y-143365047D01*
X73497238Y-143507904D01*
X73449619Y-143603142D01*
X73402000Y-143650761D01*
X73306761Y-143698380D01*
X72925809Y-143698380D01*
X72925809Y-142698380D01*
X73259142Y-142698380D01*
X73354380Y-142746000D01*
X73402000Y-142793619D01*
X73449619Y-142888857D01*
X73449619Y-142984095D01*
X73402000Y-143079333D01*
X73354380Y-143126952D01*
X73259142Y-143174571D01*
X72925809Y-143174571D01*
X74354380Y-143698380D02*
X74354380Y-143174571D01*
X74306761Y-143079333D01*
X74211523Y-143031714D01*
X74021047Y-143031714D01*
X73925809Y-143079333D01*
X74354380Y-143650761D02*
X74259142Y-143698380D01*
X74021047Y-143698380D01*
X73925809Y-143650761D01*
X73878190Y-143555523D01*
X73878190Y-143460285D01*
X73925809Y-143365047D01*
X74021047Y-143317428D01*
X74259142Y-143317428D01*
X74354380Y-143269809D01*
X74687714Y-143031714D02*
X75068666Y-143031714D01*
X74830571Y-142698380D02*
X74830571Y-143555523D01*
X74878190Y-143650761D01*
X74973428Y-143698380D01*
X75068666Y-143698380D01*
X75259142Y-143031714D02*
X75640095Y-143031714D01*
X75402000Y-142698380D02*
X75402000Y-143555523D01*
X75449619Y-143650761D01*
X75544857Y-143698380D01*
X75640095Y-143698380D01*
X76354380Y-143650761D02*
X76259142Y-143698380D01*
X76068666Y-143698380D01*
X75973428Y-143650761D01*
X75925809Y-143555523D01*
X75925809Y-143174571D01*
X75973428Y-143079333D01*
X76068666Y-143031714D01*
X76259142Y-143031714D01*
X76354380Y-143079333D01*
X76402000Y-143174571D01*
X76402000Y-143269809D01*
X75925809Y-143365047D01*
X76830571Y-143698380D02*
X76830571Y-143031714D01*
X76830571Y-143222190D02*
X76878190Y-143126952D01*
X76925809Y-143079333D01*
X77021047Y-143031714D01*
X77116285Y-143031714D01*
X77354380Y-143031714D02*
X77592476Y-143698380D01*
X77830571Y-143031714D02*
X77592476Y-143698380D01*
X77497238Y-143936476D01*
X77449619Y-143984095D01*
X77354380Y-144031714D01*
X79544857Y-143603142D02*
X79497238Y-143650761D01*
X79354380Y-143698380D01*
X79259142Y-143698380D01*
X79116285Y-143650761D01*
X79021047Y-143555523D01*
X78973428Y-143460285D01*
X78925809Y-143269809D01*
X78925809Y-143126952D01*
X78973428Y-142936476D01*
X79021047Y-142841238D01*
X79116285Y-142746000D01*
X79259142Y-142698380D01*
X79354380Y-142698380D01*
X79497238Y-142746000D01*
X79544857Y-142793619D01*
X79973428Y-143698380D02*
X79973428Y-142698380D01*
X80402000Y-143698380D02*
X80402000Y-143174571D01*
X80354380Y-143079333D01*
X80259142Y-143031714D01*
X80116285Y-143031714D01*
X80021047Y-143079333D01*
X79973428Y-143126952D01*
X81306761Y-143698380D02*
X81306761Y-143174571D01*
X81259142Y-143079333D01*
X81163904Y-143031714D01*
X80973428Y-143031714D01*
X80878190Y-143079333D01*
X81306761Y-143650761D02*
X81211523Y-143698380D01*
X80973428Y-143698380D01*
X80878190Y-143650761D01*
X80830571Y-143555523D01*
X80830571Y-143460285D01*
X80878190Y-143365047D01*
X80973428Y-143317428D01*
X81211523Y-143317428D01*
X81306761Y-143269809D01*
X81782952Y-143698380D02*
X81782952Y-143031714D01*
X81782952Y-143222190D02*
X81830571Y-143126952D01*
X81878190Y-143079333D01*
X81973428Y-143031714D01*
X82068666Y-143031714D01*
X82830571Y-143031714D02*
X82830571Y-143841238D01*
X82782952Y-143936476D01*
X82735333Y-143984095D01*
X82640095Y-144031714D01*
X82497238Y-144031714D01*
X82402000Y-143984095D01*
X82830571Y-143650761D02*
X82735333Y-143698380D01*
X82544857Y-143698380D01*
X82449619Y-143650761D01*
X82402000Y-143603142D01*
X82354380Y-143507904D01*
X82354380Y-143222190D01*
X82402000Y-143126952D01*
X82449619Y-143079333D01*
X82544857Y-143031714D01*
X82735333Y-143031714D01*
X82830571Y-143079333D01*
X83687714Y-143650761D02*
X83592476Y-143698380D01*
X83402000Y-143698380D01*
X83306761Y-143650761D01*
X83259142Y-143555523D01*
X83259142Y-143174571D01*
X83306761Y-143079333D01*
X83402000Y-143031714D01*
X83592476Y-143031714D01*
X83687714Y-143079333D01*
X83735333Y-143174571D01*
X83735333Y-143269809D01*
X83259142Y-143365047D01*
X84163904Y-143698380D02*
X84163904Y-143031714D01*
X84163904Y-143222190D02*
X84211523Y-143126952D01*
X84259142Y-143079333D01*
X84354380Y-143031714D01*
X84449619Y-143031714D01*
X86068666Y-143698380D02*
X85497238Y-143698380D01*
X85782952Y-143698380D02*
X85782952Y-142698380D01*
X85687714Y-142841238D01*
X85592476Y-142936476D01*
X85497238Y-142984095D01*
X86449619Y-143412666D02*
X86925809Y-143412666D01*
X86354380Y-143698380D02*
X86687714Y-142698380D01*
X87021047Y-143698380D01*
X84466000Y-156939904D02*
X84418380Y-157035142D01*
X84418380Y-157178000D01*
X84466000Y-157320857D01*
X84561238Y-157416095D01*
X84656476Y-157463714D01*
X84846952Y-157511333D01*
X84989809Y-157511333D01*
X85180285Y-157463714D01*
X85275523Y-157416095D01*
X85370761Y-157320857D01*
X85418380Y-157178000D01*
X85418380Y-157082761D01*
X85370761Y-156939904D01*
X85323142Y-156892285D01*
X84989809Y-156892285D01*
X84989809Y-157082761D01*
X85418380Y-156463714D02*
X84418380Y-156463714D01*
X85418380Y-155892285D01*
X84418380Y-155892285D01*
X85418380Y-155416095D02*
X84418380Y-155416095D01*
X84418380Y-155178000D01*
X84466000Y-155035142D01*
X84561238Y-154939904D01*
X84656476Y-154892285D01*
X84846952Y-154844666D01*
X84989809Y-154844666D01*
X85180285Y-154892285D01*
X85275523Y-154939904D01*
X85370761Y-155035142D01*
X85418380Y-155178000D01*
X85418380Y-155416095D01*
X74818380Y-156420857D02*
X74818380Y-156897047D01*
X75294571Y-156944666D01*
X75246952Y-156897047D01*
X75199333Y-156801809D01*
X75199333Y-156563714D01*
X75246952Y-156468476D01*
X75294571Y-156420857D01*
X75389809Y-156373238D01*
X75627904Y-156373238D01*
X75723142Y-156420857D01*
X75770761Y-156468476D01*
X75818380Y-156563714D01*
X75818380Y-156801809D01*
X75770761Y-156897047D01*
X75723142Y-156944666D01*
X75151714Y-156039904D02*
X75818380Y-155801809D01*
X75151714Y-155563714D01*
X76294571Y-136825619D02*
X76342190Y-136682761D01*
X76389809Y-136635142D01*
X76485047Y-136587523D01*
X76627904Y-136587523D01*
X76723142Y-136635142D01*
X76770761Y-136682761D01*
X76818380Y-136778000D01*
X76818380Y-137158952D01*
X75818380Y-137158952D01*
X75818380Y-136825619D01*
X75866000Y-136730380D01*
X75913619Y-136682761D01*
X76008857Y-136635142D01*
X76104095Y-136635142D01*
X76199333Y-136682761D01*
X76246952Y-136730380D01*
X76294571Y-136825619D01*
X76294571Y-137158952D01*
X76437428Y-136158952D02*
X76437428Y-135397047D01*
X76818380Y-135778000D02*
X76056476Y-135778000D01*
X83894571Y-136825619D02*
X83942190Y-136682761D01*
X83989809Y-136635142D01*
X84085047Y-136587523D01*
X84227904Y-136587523D01*
X84323142Y-136635142D01*
X84370761Y-136682761D01*
X84418380Y-136778000D01*
X84418380Y-137158952D01*
X83418380Y-137158952D01*
X83418380Y-136825619D01*
X83466000Y-136730380D01*
X83513619Y-136682761D01*
X83608857Y-136635142D01*
X83704095Y-136635142D01*
X83799333Y-136682761D01*
X83846952Y-136730380D01*
X83894571Y-136825619D01*
X83894571Y-137158952D01*
X84037428Y-136158952D02*
X84037428Y-135397047D01*
X72318380Y-138530380D02*
X72318380Y-138339904D01*
X72366000Y-138244666D01*
X72461238Y-138149428D01*
X72651714Y-138101809D01*
X72985047Y-138101809D01*
X73175523Y-138149428D01*
X73270761Y-138244666D01*
X73318380Y-138339904D01*
X73318380Y-138530380D01*
X73270761Y-138625619D01*
X73175523Y-138720857D01*
X72985047Y-138768476D01*
X72651714Y-138768476D01*
X72461238Y-138720857D01*
X72366000Y-138625619D01*
X72318380Y-138530380D01*
X72651714Y-137244666D02*
X73318380Y-137244666D01*
X72651714Y-137673238D02*
X73175523Y-137673238D01*
X73270761Y-137625619D01*
X73318380Y-137530380D01*
X73318380Y-137387523D01*
X73270761Y-137292285D01*
X73223142Y-137244666D01*
X72651714Y-136911333D02*
X72651714Y-136530380D01*
X72318380Y-136768476D02*
X73175523Y-136768476D01*
X73270761Y-136720857D01*
X73318380Y-136625619D01*
X73318380Y-136530380D01*
X72937428Y-136197047D02*
X72937428Y-135435142D01*
X73318380Y-135816095D02*
X72556476Y-135816095D01*
X86918380Y-138530380D02*
X86918380Y-138339904D01*
X86966000Y-138244666D01*
X87061238Y-138149428D01*
X87251714Y-138101809D01*
X87585047Y-138101809D01*
X87775523Y-138149428D01*
X87870761Y-138244666D01*
X87918380Y-138339904D01*
X87918380Y-138530380D01*
X87870761Y-138625619D01*
X87775523Y-138720857D01*
X87585047Y-138768476D01*
X87251714Y-138768476D01*
X87061238Y-138720857D01*
X86966000Y-138625619D01*
X86918380Y-138530380D01*
X87251714Y-137244666D02*
X87918380Y-137244666D01*
X87251714Y-137673238D02*
X87775523Y-137673238D01*
X87870761Y-137625619D01*
X87918380Y-137530380D01*
X87918380Y-137387523D01*
X87870761Y-137292285D01*
X87823142Y-137244666D01*
X87251714Y-136911333D02*
X87251714Y-136530380D01*
X86918380Y-136768476D02*
X87775523Y-136768476D01*
X87870761Y-136720857D01*
X87918380Y-136625619D01*
X87918380Y-136530380D01*
X87537428Y-136197047D02*
X87537428Y-135435142D01*
X79104095Y-155830380D02*
X79104095Y-156639904D01*
X79151714Y-156735142D01*
X79199333Y-156782761D01*
X79294571Y-156830380D01*
X79485047Y-156830380D01*
X79580285Y-156782761D01*
X79627904Y-156735142D01*
X79675523Y-156639904D01*
X79675523Y-155830380D01*
X80104095Y-156782761D02*
X80246952Y-156830380D01*
X80485047Y-156830380D01*
X80580285Y-156782761D01*
X80627904Y-156735142D01*
X80675523Y-156639904D01*
X80675523Y-156544666D01*
X80627904Y-156449428D01*
X80580285Y-156401809D01*
X80485047Y-156354190D01*
X80294571Y-156306571D01*
X80199333Y-156258952D01*
X80151714Y-156211333D01*
X80104095Y-156116095D01*
X80104095Y-156020857D01*
X80151714Y-155925619D01*
X80199333Y-155878000D01*
X80294571Y-155830380D01*
X80532666Y-155830380D01*
X80675523Y-155878000D01*
X81437428Y-156306571D02*
X81580285Y-156354190D01*
X81627904Y-156401809D01*
X81675523Y-156497047D01*
X81675523Y-156639904D01*
X81627904Y-156735142D01*
X81580285Y-156782761D01*
X81485047Y-156830380D01*
X81104095Y-156830380D01*
X81104095Y-155830380D01*
X81437428Y-155830380D01*
X81532666Y-155878000D01*
X81580285Y-155925619D01*
X81627904Y-156020857D01*
X81627904Y-156116095D01*
X81580285Y-156211333D01*
X81532666Y-156258952D01*
X81437428Y-156306571D01*
X81104095Y-156306571D01*
X88137428Y-154358952D02*
X88137428Y-153597047D01*
X72937428Y-154458952D02*
X72937428Y-153697047D01*
X73318380Y-154078000D02*
X72556476Y-154078000D01*
G04 #@! TO.C,C1*
X94103333Y-124371142D02*
X94055714Y-124418761D01*
X93912857Y-124466380D01*
X93817619Y-124466380D01*
X93674761Y-124418761D01*
X93579523Y-124323523D01*
X93531904Y-124228285D01*
X93484285Y-124037809D01*
X93484285Y-123894952D01*
X93531904Y-123704476D01*
X93579523Y-123609238D01*
X93674761Y-123514000D01*
X93817619Y-123466380D01*
X93912857Y-123466380D01*
X94055714Y-123514000D01*
X94103333Y-123561619D01*
X95055714Y-124466380D02*
X94484285Y-124466380D01*
X94770000Y-124466380D02*
X94770000Y-123466380D01*
X94674761Y-123609238D01*
X94579523Y-123704476D01*
X94484285Y-123752095D01*
G04 #@! TO.C,C2*
X127995333Y-149445142D02*
X127947714Y-149492761D01*
X127804857Y-149540380D01*
X127709619Y-149540380D01*
X127566761Y-149492761D01*
X127471523Y-149397523D01*
X127423904Y-149302285D01*
X127376285Y-149111809D01*
X127376285Y-148968952D01*
X127423904Y-148778476D01*
X127471523Y-148683238D01*
X127566761Y-148588000D01*
X127709619Y-148540380D01*
X127804857Y-148540380D01*
X127947714Y-148588000D01*
X127995333Y-148635619D01*
X128376285Y-148635619D02*
X128423904Y-148588000D01*
X128519142Y-148540380D01*
X128757238Y-148540380D01*
X128852476Y-148588000D01*
X128900095Y-148635619D01*
X128947714Y-148730857D01*
X128947714Y-148826095D01*
X128900095Y-148968952D01*
X128328666Y-149540380D01*
X128947714Y-149540380D01*
G04 #@! TO.C,C3*
X94233333Y-146057142D02*
X94185714Y-146104761D01*
X94042857Y-146152380D01*
X93947619Y-146152380D01*
X93804761Y-146104761D01*
X93709523Y-146009523D01*
X93661904Y-145914285D01*
X93614285Y-145723809D01*
X93614285Y-145580952D01*
X93661904Y-145390476D01*
X93709523Y-145295238D01*
X93804761Y-145200000D01*
X93947619Y-145152380D01*
X94042857Y-145152380D01*
X94185714Y-145200000D01*
X94233333Y-145247619D01*
X94566666Y-145152380D02*
X95185714Y-145152380D01*
X94852380Y-145533333D01*
X94995238Y-145533333D01*
X95090476Y-145580952D01*
X95138095Y-145628571D01*
X95185714Y-145723809D01*
X95185714Y-145961904D01*
X95138095Y-146057142D01*
X95090476Y-146104761D01*
X94995238Y-146152380D01*
X94709523Y-146152380D01*
X94614285Y-146104761D01*
X94566666Y-146057142D01*
G04 #@! TO.C,C4*
X94223333Y-138755142D02*
X94175714Y-138802761D01*
X94032857Y-138850380D01*
X93937619Y-138850380D01*
X93794761Y-138802761D01*
X93699523Y-138707523D01*
X93651904Y-138612285D01*
X93604285Y-138421809D01*
X93604285Y-138278952D01*
X93651904Y-138088476D01*
X93699523Y-137993238D01*
X93794761Y-137898000D01*
X93937619Y-137850380D01*
X94032857Y-137850380D01*
X94175714Y-137898000D01*
X94223333Y-137945619D01*
X95080476Y-138183714D02*
X95080476Y-138850380D01*
X94842380Y-137802761D02*
X94604285Y-138517047D01*
X95223333Y-138517047D01*
G04 #@! TO.C,Q1*
X127054761Y-124383619D02*
X126959523Y-124336000D01*
X126864285Y-124240761D01*
X126721428Y-124097904D01*
X126626190Y-124050285D01*
X126530952Y-124050285D01*
X126578571Y-124288380D02*
X126483333Y-124240761D01*
X126388095Y-124145523D01*
X126340476Y-123955047D01*
X126340476Y-123621714D01*
X126388095Y-123431238D01*
X126483333Y-123336000D01*
X126578571Y-123288380D01*
X126769047Y-123288380D01*
X126864285Y-123336000D01*
X126959523Y-123431238D01*
X127007142Y-123621714D01*
X127007142Y-123955047D01*
X126959523Y-124145523D01*
X126864285Y-124240761D01*
X126769047Y-124288380D01*
X126578571Y-124288380D01*
X127959523Y-124288380D02*
X127388095Y-124288380D01*
X127673809Y-124288380D02*
X127673809Y-123288380D01*
X127578571Y-123431238D01*
X127483333Y-123526476D01*
X127388095Y-123574095D01*
G04 #@! TO.C,R1*
X129011333Y-146492380D02*
X128678000Y-146016190D01*
X128439904Y-146492380D02*
X128439904Y-145492380D01*
X128820857Y-145492380D01*
X128916095Y-145540000D01*
X128963714Y-145587619D01*
X129011333Y-145682857D01*
X129011333Y-145825714D01*
X128963714Y-145920952D01*
X128916095Y-145968571D01*
X128820857Y-146016190D01*
X128439904Y-146016190D01*
X129963714Y-146492380D02*
X129392285Y-146492380D01*
X129678000Y-146492380D02*
X129678000Y-145492380D01*
X129582761Y-145635238D01*
X129487523Y-145730476D01*
X129392285Y-145778095D01*
G04 #@! TO.C,R2*
X129011333Y-143952380D02*
X128678000Y-143476190D01*
X128439904Y-143952380D02*
X128439904Y-142952380D01*
X128820857Y-142952380D01*
X128916095Y-143000000D01*
X128963714Y-143047619D01*
X129011333Y-143142857D01*
X129011333Y-143285714D01*
X128963714Y-143380952D01*
X128916095Y-143428571D01*
X128820857Y-143476190D01*
X128439904Y-143476190D01*
X129392285Y-143047619D02*
X129439904Y-143000000D01*
X129535142Y-142952380D01*
X129773238Y-142952380D01*
X129868476Y-143000000D01*
X129916095Y-143047619D01*
X129963714Y-143142857D01*
X129963714Y-143238095D01*
X129916095Y-143380952D01*
X129344666Y-143952380D01*
X129963714Y-143952380D01*
G04 #@! TO.C,R3*
X129011333Y-141412380D02*
X128678000Y-140936190D01*
X128439904Y-141412380D02*
X128439904Y-140412380D01*
X128820857Y-140412380D01*
X128916095Y-140460000D01*
X128963714Y-140507619D01*
X129011333Y-140602857D01*
X129011333Y-140745714D01*
X128963714Y-140840952D01*
X128916095Y-140888571D01*
X128820857Y-140936190D01*
X128439904Y-140936190D01*
X129344666Y-140412380D02*
X129963714Y-140412380D01*
X129630380Y-140793333D01*
X129773238Y-140793333D01*
X129868476Y-140840952D01*
X129916095Y-140888571D01*
X129963714Y-140983809D01*
X129963714Y-141221904D01*
X129916095Y-141317142D01*
X129868476Y-141364761D01*
X129773238Y-141412380D01*
X129487523Y-141412380D01*
X129392285Y-141364761D01*
X129344666Y-141317142D01*
G04 #@! TO.C,R4*
X129011333Y-138872380D02*
X128678000Y-138396190D01*
X128439904Y-138872380D02*
X128439904Y-137872380D01*
X128820857Y-137872380D01*
X128916095Y-137920000D01*
X128963714Y-137967619D01*
X129011333Y-138062857D01*
X129011333Y-138205714D01*
X128963714Y-138300952D01*
X128916095Y-138348571D01*
X128820857Y-138396190D01*
X128439904Y-138396190D01*
X129868476Y-138205714D02*
X129868476Y-138872380D01*
X129630380Y-137824761D02*
X129392285Y-138539047D01*
X130011333Y-138539047D01*
G04 #@! TO.C,R5*
X129011333Y-136332380D02*
X128678000Y-135856190D01*
X128439904Y-136332380D02*
X128439904Y-135332380D01*
X128820857Y-135332380D01*
X128916095Y-135380000D01*
X128963714Y-135427619D01*
X129011333Y-135522857D01*
X129011333Y-135665714D01*
X128963714Y-135760952D01*
X128916095Y-135808571D01*
X128820857Y-135856190D01*
X128439904Y-135856190D01*
X129916095Y-135332380D02*
X129439904Y-135332380D01*
X129392285Y-135808571D01*
X129439904Y-135760952D01*
X129535142Y-135713333D01*
X129773238Y-135713333D01*
X129868476Y-135760952D01*
X129916095Y-135808571D01*
X129963714Y-135903809D01*
X129963714Y-136141904D01*
X129916095Y-136237142D01*
X129868476Y-136284761D01*
X129773238Y-136332380D01*
X129535142Y-136332380D01*
X129439904Y-136284761D01*
X129392285Y-136237142D01*
G04 #@! TO.C,R6*
X129011333Y-133792380D02*
X128678000Y-133316190D01*
X128439904Y-133792380D02*
X128439904Y-132792380D01*
X128820857Y-132792380D01*
X128916095Y-132840000D01*
X128963714Y-132887619D01*
X129011333Y-132982857D01*
X129011333Y-133125714D01*
X128963714Y-133220952D01*
X128916095Y-133268571D01*
X128820857Y-133316190D01*
X128439904Y-133316190D01*
X129868476Y-132792380D02*
X129678000Y-132792380D01*
X129582761Y-132840000D01*
X129535142Y-132887619D01*
X129439904Y-133030476D01*
X129392285Y-133220952D01*
X129392285Y-133601904D01*
X129439904Y-133697142D01*
X129487523Y-133744761D01*
X129582761Y-133792380D01*
X129773238Y-133792380D01*
X129868476Y-133744761D01*
X129916095Y-133697142D01*
X129963714Y-133601904D01*
X129963714Y-133363809D01*
X129916095Y-133268571D01*
X129868476Y-133220952D01*
X129773238Y-133173333D01*
X129582761Y-133173333D01*
X129487523Y-133220952D01*
X129439904Y-133268571D01*
X129392285Y-133363809D01*
G04 #@! TO.C,R7*
X129011333Y-131252380D02*
X128678000Y-130776190D01*
X128439904Y-131252380D02*
X128439904Y-130252380D01*
X128820857Y-130252380D01*
X128916095Y-130300000D01*
X128963714Y-130347619D01*
X129011333Y-130442857D01*
X129011333Y-130585714D01*
X128963714Y-130680952D01*
X128916095Y-130728571D01*
X128820857Y-130776190D01*
X128439904Y-130776190D01*
X129344666Y-130252380D02*
X130011333Y-130252380D01*
X129582761Y-131252380D01*
G04 #@! TO.C,RV1*
X125312380Y-156795238D02*
X124836190Y-157128571D01*
X125312380Y-157366666D02*
X124312380Y-157366666D01*
X124312380Y-156985714D01*
X124360000Y-156890476D01*
X124407619Y-156842857D01*
X124502857Y-156795238D01*
X124645714Y-156795238D01*
X124740952Y-156842857D01*
X124788571Y-156890476D01*
X124836190Y-156985714D01*
X124836190Y-157366666D01*
X124312380Y-156509523D02*
X125312380Y-156176190D01*
X124312380Y-155842857D01*
X125312380Y-154985714D02*
X125312380Y-155557142D01*
X125312380Y-155271428D02*
X124312380Y-155271428D01*
X124455238Y-155366666D01*
X124550476Y-155461904D01*
X124598095Y-155557142D01*
G04 #@! TO.C,U2*
X93628095Y-130796380D02*
X93628095Y-131605904D01*
X93675714Y-131701142D01*
X93723333Y-131748761D01*
X93818571Y-131796380D01*
X94009047Y-131796380D01*
X94104285Y-131748761D01*
X94151904Y-131701142D01*
X94199523Y-131605904D01*
X94199523Y-130796380D01*
X94628095Y-130891619D02*
X94675714Y-130844000D01*
X94770952Y-130796380D01*
X95009047Y-130796380D01*
X95104285Y-130844000D01*
X95151904Y-130891619D01*
X95199523Y-130986857D01*
X95199523Y-131082095D01*
X95151904Y-131224952D01*
X94580476Y-131796380D01*
X95199523Y-131796380D01*
G04 #@! TO.C,J1*
X130368666Y-156414380D02*
X130368666Y-157128666D01*
X130321047Y-157271523D01*
X130225809Y-157366761D01*
X130082952Y-157414380D01*
X129987714Y-157414380D01*
X131368666Y-157414380D02*
X130797238Y-157414380D01*
X131082952Y-157414380D02*
X131082952Y-156414380D01*
X130987714Y-156557238D01*
X130892476Y-156652476D01*
X130797238Y-156700095D01*
G04 #@! TO.C,J2*
X133162666Y-123394380D02*
X133162666Y-124108666D01*
X133115047Y-124251523D01*
X133019809Y-124346761D01*
X132876952Y-124394380D01*
X132781714Y-124394380D01*
X133591238Y-123489619D02*
X133638857Y-123442000D01*
X133734095Y-123394380D01*
X133972190Y-123394380D01*
X134067428Y-123442000D01*
X134115047Y-123489619D01*
X134162666Y-123584857D01*
X134162666Y-123680095D01*
X134115047Y-123822952D01*
X133543619Y-124394380D01*
X134162666Y-124394380D01*
G04 #@! TO.C,SW1*
X135776761Y-145051333D02*
X135824380Y-144908476D01*
X135824380Y-144670380D01*
X135776761Y-144575142D01*
X135729142Y-144527523D01*
X135633904Y-144479904D01*
X135538666Y-144479904D01*
X135443428Y-144527523D01*
X135395809Y-144575142D01*
X135348190Y-144670380D01*
X135300571Y-144860857D01*
X135252952Y-144956095D01*
X135205333Y-145003714D01*
X135110095Y-145051333D01*
X135014857Y-145051333D01*
X134919619Y-145003714D01*
X134872000Y-144956095D01*
X134824380Y-144860857D01*
X134824380Y-144622761D01*
X134872000Y-144479904D01*
X134824380Y-144146571D02*
X135824380Y-143908476D01*
X135110095Y-143718000D01*
X135824380Y-143527523D01*
X134824380Y-143289428D01*
X135824380Y-142384666D02*
X135824380Y-142956095D01*
X135824380Y-142670380D02*
X134824380Y-142670380D01*
X134967238Y-142765619D01*
X135062476Y-142860857D01*
X135110095Y-142956095D01*
G04 #@! TO.C,SW2*
X90236666Y-153836761D02*
X90379523Y-153884380D01*
X90617619Y-153884380D01*
X90712857Y-153836761D01*
X90760476Y-153789142D01*
X90808095Y-153693904D01*
X90808095Y-153598666D01*
X90760476Y-153503428D01*
X90712857Y-153455809D01*
X90617619Y-153408190D01*
X90427142Y-153360571D01*
X90331904Y-153312952D01*
X90284285Y-153265333D01*
X90236666Y-153170095D01*
X90236666Y-153074857D01*
X90284285Y-152979619D01*
X90331904Y-152932000D01*
X90427142Y-152884380D01*
X90665238Y-152884380D01*
X90808095Y-152932000D01*
X91141428Y-152884380D02*
X91379523Y-153884380D01*
X91570000Y-153170095D01*
X91760476Y-153884380D01*
X91998571Y-152884380D01*
X92331904Y-152979619D02*
X92379523Y-152932000D01*
X92474761Y-152884380D01*
X92712857Y-152884380D01*
X92808095Y-152932000D01*
X92855714Y-152979619D01*
X92903333Y-153074857D01*
X92903333Y-153170095D01*
X92855714Y-153312952D01*
X92284285Y-153884380D01*
X92903333Y-153884380D01*
G04 #@! TO.C,BT1*
X80464285Y-120178571D02*
X80607142Y-120226190D01*
X80654761Y-120273809D01*
X80702380Y-120369047D01*
X80702380Y-120511904D01*
X80654761Y-120607142D01*
X80607142Y-120654761D01*
X80511904Y-120702380D01*
X80130952Y-120702380D01*
X80130952Y-119702380D01*
X80464285Y-119702380D01*
X80559523Y-119750000D01*
X80607142Y-119797619D01*
X80654761Y-119892857D01*
X80654761Y-119988095D01*
X80607142Y-120083333D01*
X80559523Y-120130952D01*
X80464285Y-120178571D01*
X80130952Y-120178571D01*
X80988095Y-119702380D02*
X81559523Y-119702380D01*
X81273809Y-120702380D02*
X81273809Y-119702380D01*
X82416666Y-120702380D02*
X81845238Y-120702380D01*
X82130952Y-120702380D02*
X82130952Y-119702380D01*
X82035714Y-119845238D01*
X81940476Y-119940476D01*
X81845238Y-119988095D01*
D11*
X87607142Y-112964285D02*
X89892857Y-112964285D01*
X88750000Y-114107142D02*
X88750000Y-111821428D01*
D12*
X102261904Y-113904761D02*
X101119047Y-113904761D01*
X101690476Y-113904761D02*
X101690476Y-111904761D01*
X101500000Y-112190476D01*
X101309523Y-112380952D01*
X101119047Y-112476190D01*
X103404761Y-112761904D02*
X103214285Y-112666666D01*
X103119047Y-112571428D01*
X103023809Y-112380952D01*
X103023809Y-112285714D01*
X103119047Y-112095238D01*
X103214285Y-112000000D01*
X103404761Y-111904761D01*
X103785714Y-111904761D01*
X103976190Y-112000000D01*
X104071428Y-112095238D01*
X104166666Y-112285714D01*
X104166666Y-112380952D01*
X104071428Y-112571428D01*
X103976190Y-112666666D01*
X103785714Y-112761904D01*
X103404761Y-112761904D01*
X103214285Y-112857142D01*
X103119047Y-112952380D01*
X103023809Y-113142857D01*
X103023809Y-113523809D01*
X103119047Y-113714285D01*
X103214285Y-113809523D01*
X103404761Y-113904761D01*
X103785714Y-113904761D01*
X103976190Y-113809523D01*
X104071428Y-113714285D01*
X104166666Y-113523809D01*
X104166666Y-113142857D01*
X104071428Y-112952380D01*
X103976190Y-112857142D01*
X103785714Y-112761904D01*
X105880952Y-111904761D02*
X105500000Y-111904761D01*
X105309523Y-112000000D01*
X105214285Y-112095238D01*
X105023809Y-112380952D01*
X104928571Y-112761904D01*
X104928571Y-113523809D01*
X105023809Y-113714285D01*
X105119047Y-113809523D01*
X105309523Y-113904761D01*
X105690476Y-113904761D01*
X105880952Y-113809523D01*
X105976190Y-113714285D01*
X106071428Y-113523809D01*
X106071428Y-113047619D01*
X105976190Y-112857142D01*
X105880952Y-112761904D01*
X105690476Y-112666666D01*
X105309523Y-112666666D01*
X105119047Y-112761904D01*
X105023809Y-112857142D01*
X104928571Y-113047619D01*
X107880952Y-111904761D02*
X106928571Y-111904761D01*
X106833333Y-112857142D01*
X106928571Y-112761904D01*
X107119047Y-112666666D01*
X107595238Y-112666666D01*
X107785714Y-112761904D01*
X107880952Y-112857142D01*
X107976190Y-113047619D01*
X107976190Y-113523809D01*
X107880952Y-113714285D01*
X107785714Y-113809523D01*
X107595238Y-113904761D01*
X107119047Y-113904761D01*
X106928571Y-113809523D01*
X106833333Y-113714285D01*
X109214285Y-111904761D02*
X109404761Y-111904761D01*
X109595238Y-112000000D01*
X109690476Y-112095238D01*
X109785714Y-112285714D01*
X109880952Y-112666666D01*
X109880952Y-113142857D01*
X109785714Y-113523809D01*
X109690476Y-113714285D01*
X109595238Y-113809523D01*
X109404761Y-113904761D01*
X109214285Y-113904761D01*
X109023809Y-113809523D01*
X108928571Y-113714285D01*
X108833333Y-113523809D01*
X108738095Y-113142857D01*
X108738095Y-112666666D01*
X108833333Y-112285714D01*
X108928571Y-112095238D01*
X109023809Y-112000000D01*
X109214285Y-111904761D01*
D11*
X121107142Y-112964285D02*
X123392857Y-112964285D01*
G04 #@! TD*
%LPC*%
D14*
G04 #@! TO.C,U3*
X103905000Y-134483000D03*
X103905000Y-131943000D03*
X103905000Y-142357000D03*
X103905000Y-144897000D03*
X100984000Y-125720000D03*
X100984000Y-128260000D03*
X100984000Y-133340000D03*
X100984000Y-130800000D03*
X100984000Y-140960000D03*
X100984000Y-143500000D03*
X100984000Y-138420000D03*
X100984000Y-135880000D03*
X100984000Y-146040000D03*
X100984000Y-148580000D03*
X100984000Y-153660000D03*
X100984000Y-151120000D03*
X116224000Y-151120000D03*
X116224000Y-153660000D03*
X116224000Y-148580000D03*
X116224000Y-146040000D03*
X116224000Y-135880000D03*
X116224000Y-138420000D03*
X116224000Y-143500000D03*
X116224000Y-140960000D03*
X116224000Y-130800000D03*
X116224000Y-133340000D03*
X116224000Y-128260000D03*
X116224000Y-125720000D03*
G04 #@! TD*
D15*
G04 #@! TO.C,U1*
X84066000Y-133378000D03*
X76466000Y-133378000D03*
X87466000Y-133378000D03*
X72966000Y-133378000D03*
X87166000Y-156278000D03*
X72966000Y-156278000D03*
G04 #@! TD*
D16*
G04 #@! TO.C,C1*
X95540000Y-127570000D03*
D17*
X93040000Y-127570000D03*
G04 #@! TD*
D16*
G04 #@! TO.C,C2*
X128162000Y-151374000D03*
D17*
X128162000Y-153874000D03*
G04 #@! TD*
G04 #@! TO.C,C3*
X93160000Y-149330000D03*
D16*
X95660000Y-149330000D03*
G04 #@! TD*
D17*
G04 #@! TO.C,C4*
X93160000Y-141700000D03*
D16*
X95660000Y-141700000D03*
G04 #@! TD*
D18*
G04 #@! TO.C,Q1*
X123340000Y-126630000D03*
D19*
X125880000Y-126630000D03*
X124610000Y-126630000D03*
G04 #@! TD*
D20*
G04 #@! TO.C,R1*
X127146000Y-146040000D03*
D21*
X119526000Y-146040000D03*
G04 #@! TD*
D20*
G04 #@! TO.C,R2*
X119526000Y-143500000D03*
D21*
X127146000Y-143500000D03*
G04 #@! TD*
G04 #@! TO.C,R3*
X127146000Y-140960000D03*
D20*
X119526000Y-140960000D03*
G04 #@! TD*
G04 #@! TO.C,R4*
X119526000Y-138420000D03*
D21*
X127146000Y-138420000D03*
G04 #@! TD*
G04 #@! TO.C,R5*
X127146000Y-135880000D03*
D20*
X119526000Y-135880000D03*
G04 #@! TD*
G04 #@! TO.C,R6*
X119526000Y-133340000D03*
D21*
X127146000Y-133340000D03*
G04 #@! TD*
G04 #@! TO.C,R7*
X127146000Y-130800000D03*
D20*
X119526000Y-130800000D03*
G04 #@! TD*
D22*
G04 #@! TO.C,RV1*
X121304000Y-155184000D03*
X121304000Y-152644000D03*
X121304000Y-150104000D03*
G04 #@! TD*
D19*
G04 #@! TO.C,U2*
X94390000Y-134900000D03*
X95660000Y-134900000D03*
D18*
X93120000Y-134900000D03*
G04 #@! TD*
D23*
G04 #@! TO.C,J1*
X133496000Y-150866000D03*
D24*
X133496000Y-153406000D03*
X133496000Y-155946000D03*
G04 #@! TD*
D23*
G04 #@! TO.C,J2*
X133496000Y-126482000D03*
D24*
X133496000Y-129022000D03*
X133496000Y-131562000D03*
X133496000Y-134102000D03*
X133496000Y-136642000D03*
G04 #@! TD*
D25*
G04 #@! TO.C,SW1*
X134562000Y-147228000D03*
D26*
X137052000Y-145968000D03*
X137052000Y-141468000D03*
D25*
X134562000Y-140218000D03*
G04 #@! TD*
D27*
G04 #@! TO.C,SW2*
X91830000Y-155691000D03*
D20*
X94330000Y-155691000D03*
X96830000Y-155691000D03*
G04 #@! TD*
D28*
G04 #@! TO.C,BT1*
X74750000Y-113000000D03*
X82370000Y-115540000D03*
X82370000Y-110460000D03*
X128630000Y-115540000D03*
X128630000Y-110460000D03*
X136250000Y-113000000D03*
G04 #@! TD*
M02*
