M48
;DRILL file {KiCad (5.0.2)-1} date 14.04.2019 17:31:50
;FORMAT={-:-/ absolute / metric / decimal}
FMAT,2
METRIC,TZ
T1C0.700
T2C0.750
T3C0.800
T4C0.900
T5C0.990
T6C1.000
T7C1.300
T8C1.540
T9C2.000
%
G90
G05
T1
X119.526Y-133.34
X119.526Y-135.88
X127.146Y-135.88
X119.526Y-138.42
X127.146Y-138.42
X119.526Y-146.04
X127.146Y-146.04
X119.526Y-140.96
X127.146Y-140.96
X119.526Y-130.8
X127.146Y-130.8
X119.526Y-143.5
X127.146Y-143.5
X127.146Y-133.34
T2
X93.12Y-134.9
X94.39Y-134.9
X95.66Y-134.9
X123.34Y-126.63
X124.61Y-126.63
X125.88Y-126.63
T3
X121.304Y-150.104
X121.304Y-152.644
X121.304Y-155.184
X93.16Y-149.33
X95.66Y-149.33
X93.16Y-141.7
X95.66Y-141.7
X93.04Y-127.57
X95.54Y-127.57
X128.162Y-151.374
X128.162Y-153.874
T4
X91.83Y-155.691
X94.33Y-155.691
X96.83Y-155.691
T5
X137.052Y-141.468
X137.052Y-145.968
T6
X100.984Y-125.72
X100.984Y-128.26
X100.984Y-130.8
X100.984Y-133.34
X100.984Y-135.88
X100.984Y-138.42
X100.984Y-140.96
X100.984Y-143.5
X100.984Y-146.04
X100.984Y-148.58
X100.984Y-151.12
X100.984Y-153.66
X103.905Y-131.943
X103.905Y-134.483
X103.905Y-142.357
X103.905Y-144.897
X116.224Y-125.72
X116.224Y-128.26
X116.224Y-130.8
X116.224Y-133.34
X116.224Y-135.88
X116.224Y-138.42
X116.224Y-140.96
X116.224Y-143.5
X116.224Y-146.04
X116.224Y-148.58
X116.224Y-151.12
X116.224Y-153.66
X133.496Y-126.482
X133.496Y-129.022
X133.496Y-131.562
X133.496Y-134.102
X133.496Y-136.642
X133.496Y-150.866
X133.496Y-153.406
X133.496Y-155.946
T7
X134.562Y-140.218
X134.562Y-147.228
T8
X72.966Y-133.378
X72.966Y-156.278
X76.466Y-133.378
X84.066Y-133.378
X87.166Y-156.278
X87.466Y-133.378
T9
X74.75Y-113.
X82.37Y-110.46
X82.37Y-115.54
X128.63Y-110.46
X128.63Y-115.54
X136.25Y-113.
T0
M30
